<svg xmlns="http://www.w3.org/2000/svg" width="292.935" height="72.042" viewBox="0 0 292.935 72.042">
  <defs>
    <style>
      .cls-1 {
        fill: #563d7c;
      }
    </style>
  </defs>
  <g id="bootstrap-logo-vector" transform="translate(-21.5 -246.8)">
    <path id="Path_51" data-name="Path 51" class="cls-1" d="M32.238,246.849a12.674,12.674,0,0,0-4.2,1.269,11.751,11.751,0,0,0-5.223,5.223,10.925,10.925,0,0,0-1.123,3.124c-.2.83-.2,2.1-.2,26.357s0,25.527.2,26.357a10.925,10.925,0,0,0,1.123,3.124,11.751,11.751,0,0,0,5.223,5.223,10.926,10.926,0,0,0,3.124,1.123c.83.2,2.1.2,26.357.2s25.527,0,26.357-.2A10.927,10.927,0,0,0,87,317.524a11.751,11.751,0,0,0,5.223-5.223,10.925,10.925,0,0,0,1.123-3.124c.2-.83.2-2.1.2-26.357s0-25.527-.2-26.357a10.925,10.925,0,0,0-1.123-3.124,12.359,12.359,0,0,0-8.2-6.345c-.732-.2-2.05-.2-26.113-.2C43.952,246.8,32.433,246.849,32.238,246.849ZM64.7,262.663c4.881.927,7.761,3.124,8.834,6.784a12.709,12.709,0,0,1,.1,6.2,10.749,10.749,0,0,1-1.269,2.733,10.543,10.543,0,0,1-3.709,3.075,2.953,2.953,0,0,0-.635.39c0,.049.244.146.537.2a6.893,6.893,0,0,1,1.318.439c3.807,1.513,6,5.174,6,10.2a10.632,10.632,0,0,1-2.636,7.37c-1.952,2.1-4.637,3.368-8.59,4.1-.879.146-2.148.2-12.251.2l-11.324.049V262.37l11.421.049c9.811.1,11.47.1,12.2.244ZM48.443,274.231v5.808l6.736-.049c5.906-.049,6.784-.049,7.273-.2a5.685,5.685,0,0,0,3.563-2.782,5.807,5.807,0,0,0,.586-2.929c0-2.587-.781-4.1-2.489-4.93-1.464-.683-1.464-.683-8.883-.732l-6.784-.049v5.857Zm0,17.669v6.589l7.321-.049c7.175-.049,7.37-.049,8.151-.244a5.687,5.687,0,0,0,2.782-1.611,5.859,5.859,0,0,0,1.708-4.734,5.823,5.823,0,0,0-4.637-6.248c-.83-.2-1.074-.244-8.1-.244l-7.224-.049V291.9Z" transform="translate(0 0)"/>
    <path id="Shape" class="cls-1" d="M218.8,279a1.425,1.425,0,0,1,.439-.1c5.467,0,10.884,0,16.351.1a8.8,8.8,0,0,1,5.076,1.806c3.465,2.538,3.807,9.713-.976,12.3-.244.146-.488.244-.83.439a20.538,20.538,0,0,1,2.538,1.22c2.88,1.952,4.051,6.3,2.733,10.1-1.123,3.319-3.807,4.734-6.882,5.467a17.087,17.087,0,0,1-3.124.39c-5.076.049-10.2,0-15.326,0Q218.8,294.909,218.8,279Zm5.418,27.089c3.807,0,7.468.1,11.128-.049,2.294-.1,3.954-2.587,3.856-5.027-.146-2.44-1.611-4.49-3.856-4.588-3.661-.2-7.273-.146-10.933-.146-.049,0-.1.1-.2.146Zm.049-13.959c3.368,0,6.638.146,9.908-.049,2.392-.146,3.758-2.05,3.661-4.734a3.7,3.7,0,0,0-3.9-3.856c-3.075-.1-6.15-.049-9.274-.049a1.149,1.149,0,0,0-.39.1v8.59Zm168.684-4.344h4.539v2.489c.488-.391,1.123-.83,1.708-1.318,3.465-3.026,11.714-2.684,14.545,3.465,2.44,5.271,2.343,10.592-.976,15.473-1.806,2.733-4.637,3.71-7.809,3.514a8.661,8.661,0,0,1-7.126-3.661v11.568h-4.881Zm4.588,11.617a27.1,27.1,0,0,0,.634,3.465,6.127,6.127,0,0,0,5.076,4.539c2.977.2,5.125-.927,6.2-3.612a10.659,10.659,0,0,0-.683-10.055,5.781,5.781,0,0,0-10.006.488,11.068,11.068,0,0,0-1.22,5.174Zm-7.809,8.053c0,.927.049,1.9,0,2.88,0,.244-.293.634-.488.634a24.752,24.752,0,0,1-4.246.2c-1.22-.146-1.9-1.22-2.294-2.44-2.929,2.44-6.3,2.929-9.859,2.489a6.524,6.524,0,0,1-5.662-5.662c-.293-3.807,1.123-6.3,4.49-7.224,2.343-.635,4.832-.879,7.224-1.318.586-.1,1.171-.2,1.757-.342a2.256,2.256,0,0,0,1.952-2.2,2.62,2.62,0,0,0-1.611-2.831,7.549,7.549,0,0,0-6.248.146c-.927.439-1.464,1.318-1.952,2.88h-4.783a6.72,6.72,0,0,1,1.855-4.734,8.7,8.7,0,0,1,5.955-2.636,16.118,16.118,0,0,1,6.98.537,6.152,6.152,0,0,1,4.539,6.443v10.543c-.049,2.44-.049,2.44,2.392,2.636Zm-7.419-7.907c-1.513.244-2.88.488-4.246.781a31.811,31.811,0,0,0-4.246,1.074,2.943,2.943,0,0,0-1.757,3.124,2.653,2.653,0,0,0,2.05,2.44,7.247,7.247,0,0,0,5.711-.293,3.84,3.84,0,0,0,2.44-3.221,34.894,34.894,0,0,0,.049-3.9ZM259.263,287.1c7.517-.1,11.909,5.515,11.421,13.13a12.193,12.193,0,0,1-2.587,7.224,10.12,10.12,0,0,1-7.077,3.758,12.317,12.317,0,0,1-6.882-.927,10.421,10.421,0,0,1-5.955-7.712,15.064,15.064,0,0,1,.1-7.224C249.647,290.126,253.65,287.149,259.263,287.1Zm-6.54,12.2c.2,1.123.293,2.245.586,3.368a6.12,6.12,0,0,0,5.369,4.735,5.947,5.947,0,0,0,6.3-4,10.584,10.584,0,0,0-.1-8.444c-1.806-4.1-6.638-5.174-9.762-2.1C253.308,294.519,252.869,296.813,252.722,299.3Zm32.556-12.2c6.784,0,11.373,4.637,11.47,11.568a13.629,13.629,0,0,1-2.1,8.151c-2.392,3.514-5.857,4.734-9.859,4.539a12.482,12.482,0,0,1-4.393-.976,9.842,9.842,0,0,1-6-7.224,15.728,15.728,0,0,1,.293-8.883C276.1,289.784,280.153,287.1,285.278,287.1Zm6.492,11.568a19.127,19.127,0,0,0-.537-2.929,6.152,6.152,0,0,0-5.759-4.686,5.959,5.959,0,0,0-5.906,4.149,10.566,10.566,0,0,0,.683,9.371,5.861,5.861,0,0,0,8.834,1.464c2.1-1.757,2.587-4.2,2.685-7.37Zm41.829-4.49H329.06a.7.7,0,0,1-.537-.342c-.83-2.392-2.831-2.684-4.881-2.684a6.578,6.578,0,0,0-2.538.537,1.95,1.95,0,0,0-.293,3.612,17.8,17.8,0,0,0,3.612,1.367c1.757.488,3.563.83,5.32,1.318,4.442,1.367,6.2,5.906,3.709,9.664a7.867,7.867,0,0,1-5.027,3.27,15.224,15.224,0,0,1-8.981-.293c-3.173-1.171-4.832-3.514-5.076-7.028H319.2c1.367,3.661,5.271,5.076,8.883,3.221a2.351,2.351,0,0,0,1.464-2.05,2.254,2.254,0,0,0-1.318-2.392c-1.708-.635-3.465-1.074-5.223-1.611a39.916,39.916,0,0,1-4.3-1.318,5.614,5.614,0,0,1-3.856-5.808,5.719,5.719,0,0,1,3.954-5.515,14.178,14.178,0,0,1,10.494-.049,7.06,7.06,0,0,1,4.344,5.271C333.648,293.543,333.6,293.787,333.6,294.177Zm-26.211-6.492h4.49V291.4h-4.393a9.064,9.064,0,0,0-.049,1.074v11.275c0,.488.049,1.025.1,1.513a1.668,1.668,0,0,0,1.611,1.66c.879.049,1.806,0,2.782,0v3.709a12.9,12.9,0,0,1-6.1.049c-2.343-.537-3.27-2.2-3.319-5.271-.049-4.246,0-8.444,0-12.69v-1.22H298.8v-3.758h3.661v-6.882h5.027C307.389,283.1,307.389,285.343,307.389,287.686Zm41.781,23.135c-1.9,0-3.758.049-5.564,0a3.738,3.738,0,0,1-3.514-3.026,16.481,16.481,0,0,1-.342-3.075c-.049-3.954,0-7.956,0-11.909v-1.269H336.04v-3.709H339.7V280.9h5.027v6.833h4.442v3.758h-4.246a6.685,6.685,0,0,0-.1.781v12.154c0,2.148.586,2.636,2.636,2.636h1.757l-.049,3.758Zm8.346-23.038v3.9c1.9-3.319,4.588-5.076,8.542-4.49v4.832c-1.855-.293-3.661-.342-5.271.83a7.433,7.433,0,0,0-2.88,6.248c-.1,3.807,0,7.663,0,11.568h-4.93v-22.94C354.441,287.783,355.9,287.783,357.516,287.783Z" transform="translate(-101 -16.432)"/>
  </g>
</svg>
