<?xml version="1.0" encoding="UTF-8"?><svg id="Layer_1" xmlns="http://www.w3.org/2000/svg" viewBox="0 0 300 300"><defs><style>.cls-1{fill:#0070b9;}.cls-2{fill:#eaeaea;}.cls-3{fill:#fefefe;}.cls-4{fill:#29a7df;}</style></defs><path class="cls-1" d="M150.15,72.73c29.16,0,58.31,.03,87.47-.05,2.38,0,2.82,.57,2.6,2.9-1.87,19.77-3.58,39.56-5.36,59.34-1.77,19.69-3.57,39.37-5.33,59.06-1.56,17.41-3.07,34.82-4.6,52.24-.27,3.01-.68,6.01-.81,9.02-.07,1.62-.85,2.12-2.24,2.5-23.46,6.45-46.91,12.94-70.36,19.44-1.09,.3-2.08,.34-3.19,.03-23.44-6.52-46.89-13-70.34-19.47-1.38-.38-2.04-.93-2.18-2.56-2.7-31.18-5.49-62.35-8.27-93.52-2.57-28.8-5.11-57.61-7.77-86.41-.2-2.17,.3-2.57,2.36-2.57,29.34,.07,58.68,.04,88.02,.04Z"/><path d="M152.1,35.17c4.43,3.48,8.24,6.54,12.13,9.5,1.26,.96,1.93,1.98,1.82,3.65-.19,2.81,.93,6.58-.49,8.22-1.63,1.88-5.5,.55-8.38,.59-7.14,.09-14.28-.03-21.42,.07-1.69,.02-2.3-.4-2.13-2.12,.29-2.96-1.25-6.86,.62-8.65,1.5-1.44,5.38-.41,8.21-.45,1.43-.02,2.87,0,4.54-.55-3.78-2.91-7.51-5.9-11.38-8.7-1.49-1.08-2.11-2.23-2-4.07,.16-2.83,.09-5.67,.02-8.5-.03-1.17,.28-1.57,1.52-1.56,9.8,.05,19.59,.05,29.39,0,1.26,0,1.53,.48,1.51,1.62-.06,3.11-.08,6.22,0,9.33,.04,1.4-.57,1.67-1.8,1.65-3.8-.06-7.6-.02-12.13-.02Z"/><path d="M184.12,45.41c-3.89-3-7.74-6.04-11.69-8.96-1.24-.92-1.74-1.9-1.68-3.44,.11-2.83,.09-5.67,0-8.5-.04-1.32,.19-1.94,1.76-1.93,9.61,.07,19.22,.06,28.84,.01,1.24,0,1.79,.23,1.74,1.63-.1,3.11-.09,6.22,0,9.33,.04,1.4-.55,1.66-1.79,1.64-3.74-.06-7.48-.02-11.99-.02,3.61,2.86,6.54,5.52,9.82,7.68,3.06,2.02,4.25,4.36,4.03,8.09-.36,6.2-.1,6.21-6.32,6.21-7.96,0-15.93-.04-23.89,.04-1.64,.02-2.31-.35-2.2-2.1,.18-2.91-.93-6.7,.51-8.5,1.53-1.9,5.48-.43,8.37-.6,1.45-.08,2.9-.01,4.36-.01,.04-.19,.09-.37,.13-.56Z"/><path d="M96.79,39.82c0-5.13,.05-10.26-.03-15.39-.02-1.39,.3-1.86,1.79-1.85,9.44,.07,18.88,.06,28.32,0,1.39,0,1.92,.29,1.86,1.79-.12,2.93-.11,5.86,0,8.79,.05,1.45-.41,1.87-1.85,1.85-4.67-.08-9.35,.06-14.02-.08-1.9-.06-2.36,.61-2.25,2.35,.13,2.19,.15,4.4,0,6.59-.12,1.77,.56,2.16,2.2,2.12,4.49-.1,8.98,.05,13.47-.08,1.84-.05,2.67,.32,2.46,2.35-.3,2.88,1.2,6.75-.6,8.4-1.57,1.43-5.38,.45-8.21,.46-6.97,.03-13.93-.05-20.9,.05-1.8,.03-2.32-.46-2.28-2.27,.13-5.03,.04-10.07,.04-15.11Z"/><path class="cls-4" d="M149.62,110.56c0-6.78,.07-13.55-.01-20.33-.02-2,.63-2.75,2.69-2.74,23.09,.05,46.19,.05,69.28,0,1.82,0,2.47,.58,2.28,2.38-.73,7.06-1.42,14.13-2.08,21.2-.44,4.72-.79,9.44-1.22,14.16-.69,7.62-1.43,15.23-2.1,22.85-.62,6.99-1.14,13.98-1.76,20.97-.65,7.25-1.4,14.5-2.06,21.75-.44,4.81-.79,9.63-1.23,14.43-.68,7.53-1.42,15.05-2.1,22.57-.43,4.81-.96,9.62-1.12,14.44-.07,2.27-.64,3.32-2.97,3.95-18.33,4.95-36.63,10.01-54.9,15.14-2.21,.62-2.73,.11-2.71-2.04,.07-6.87,0-13.73,0-20.6,.3-.63,.84-.96,1.44-1.23,13.63-3.95,27.34-7.64,41.02-11.41,2.69-.74,3.75-2.11,3.95-4.72,1.01-13.22,2.18-26.42,3.47-39.61,1.59-16.29,2.47-32.63,4.19-48.9,.63-6,1.03-12.02,1.67-18.02,.11-1,.21-2.02-.56-2.86-1.04-.85-2.28-.57-3.45-.57-15.93-.02-31.87,0-47.8-.03-1.33,0-2.78,.34-3.92-.77Z"/><path class="cls-2" d="M150.76,238.14c-.38,.18-.77,.36-1.15,.54-14.85-4.18-29.69-8.41-44.57-12.49-1.96-.54-2.75-1.23-2.92-3.36-.84-10.67-1.87-21.32-2.9-31.97-.14-1.4,.29-1.72,1.59-1.71,6.6,.05,13.2,.07,19.79-.01,1.56-.02,2,.5,2.09,2.02,.29,4.56,.8,9.11,1.12,13.67,.13,1.82,.62,2.89,2.67,3.39,7.37,1.78,14.69,3.81,22.02,5.75,.67,.42,1.77-.13,2.14,.97,.74,3.07,.36,6.18,.34,9.27-.03,4.65,.35,9.3-.22,13.94Z"/><path class="cls-2" d="M149.62,110.56c17.93,.02,35.85,.02,53.78,.07,.93,0,2.01-.51,2.8,.48-1.31,1.16-2.93,.86-4.45,.87-14.98,.02-29.97,.01-44.95,.01-.82,0-1.64-.02-2.47,0-2.98,.09-3.25,.33-3.29,3.36-.05,4.56,0,9.13-.02,13.69,0,1.27,.11,2.57-.51,3.76-.21,.35-.52,.47-.91,.36-16.77-.02-33.53-.05-50.3-.07-3.94,0-3.89,0-4.22-3.82-.45-5.19-.89-10.39-1.5-15.56-.27-2.26,.04-3.16,2.72-3.14,17.77,.11,35.55,.01,53.32-.02Z"/><path class="cls-2" d="M99.11,178.61c-.58-7.48-1.15-14.96-1.73-22.44,.58-.37,1.24-.25,1.87-.25,16.62,0,33.25,0,49.87-.01,.37,0,.73,.02,1.08,.15,.76,.8,.8,1.83,.81,2.83,.06,5.68,.05,11.35,0,17.03,0,1.01-.04,2.03-.74,2.86-.5,.32-1.06,.2-1.6,.2-15.74,0-31.48,0-47.21-.01-.79,0-1.66,.31-2.35-.36Z"/><path class="cls-4" d="M99.11,178.61c17.02,.02,34.03,.05,51.05,.07,.91-.79,2.02-.78,3.12-.78,7.04-.02,14.09-.05,21.13,0,3.53,.03,3.93,.56,3.66,4.05-.6,7.74-1.48,15.46-2.2,23.19-.21,2.25-1.27,3.39-3.42,3.97-6.62,1.79-13.25,3.57-19.89,5.31-.79,.21-1.6,.43-2.41,.04-.58-.07-1.21,.01-1.66-.51,1.29-.22,1.14-1.21,1.14-2.12,0-10.15-.06-20.29,.04-30.44,.02-2.31-1.27-2.16-2.81-2.16-14.91,.02-29.82,.02-44.74-.02-1.01,0-2.22,.55-3.03-.61Z"/><path class="cls-4" d="M150.16,156.22c-17.59-.02-35.19-.03-52.78-.05,.92-.93,2.08-.49,3.13-.49,15.37-.03,30.75-.08,46.12,.03,2.43,.02,3.13-.64,3.06-3.07-.18-6.49-.08-12.98-.1-19.47,.19-.06,.38-.11,.57-.17,1-.83,2.22-.77,3.41-.77,8.34-.02,16.68-.04,25.01,0,3.71,.02,4.14,.52,3.87,4.17-.43,5.75-1.15,11.47-1.76,17.2-.23,2.18-1.31,3.37-3.52,3.4-8.25,.11-16.49,.09-24.74,0-.84,0-1.64-.21-2.29-.79Z"/><path class="cls-3" d="M150.16,156.22c8.6-.04,17.21-.2,25.81-.05,2.83,.05,3.95-.49,4.08-3.62,.22-5.56,.81-11.13,1.71-16.62,.46-2.81-.56-2.89-2.76-2.88-9.61,.06-19.22-.02-28.83-.06,0-6.4,.09-12.8-.07-19.2-.06-2.27,.76-2.73,2.84-2.72,17.76,.07,35.51,.04,53.27,.03-.58,7.38-1.15,14.75-1.76,22.13-.83,10.02-1.67,20.03-2.56,30.05-1.41,15.94-2.86,31.87-4.29,47.8-.38,4.28-.78,8.56-1.13,12.84-.09,1.06-.2,1.79-1.53,2.15-14.74,3.97-29.45,8.03-44.17,12.06-.95-.78-.59-1.86-.6-2.82-.02-6.95,0-13.9,0-20.85,7.39-2.05,14.77-4.14,22.18-6.11,1.8-.48,2.62-1.16,2.79-3.22,.65-8.2,1.53-16.38,2.42-24.55,.21-1.92-.85-1.8-2.12-1.79-7.42,.02-14.84,.01-22.25,0-1,0-2.01-.07-3.01-.11,0-7.49,0-14.97,0-22.46Z"/></svg>