<svg xmlns="http://www.w3.org/2000/svg" xmlns:xlink="http://www.w3.org/1999/xlink" width="258.74" height="73.46" viewBox="0 0 258.74 73.46">
  <defs>
    <clipPath id="clip-path">
      <path id="Path_18" data-name="Path 18" d="M111.839,114.446a1.689,1.689,0,0,0-1.92-1.377,1.61,1.61,0,0,0-.918.459l-8.682,8.682-6.8-12.981a1.658,1.658,0,0,0-2.254-.71,1.929,1.929,0,0,0-.71.71l-3.715,7.1-9.35-17.447a1.654,1.654,0,0,0-2.254-.668,1.735,1.735,0,0,0-.877,1.21L65.3,157.27l24.167,13.565a5.074,5.074,0,0,0,4.883,0l24.376-13.565Z" transform="translate(-65.3 -98.001)"/>
    </clipPath>
    <linearGradient id="linear-gradient" x1="0.537" y1="0.247" x2="0.462" y2="0.269" gradientUnits="objectBoundingBox">
      <stop offset="0" stop-color="#a52714"/>
      <stop offset="0.4" stop-color="#a52714" stop-opacity="0.502"/>
      <stop offset="0.8" stop-color="#a52714" stop-opacity="0"/>
    </linearGradient>
    <linearGradient id="linear-gradient-2" x1="0.474" y1="0.308" x2="0.455" y2="0.326" gradientUnits="objectBoundingBox">
      <stop offset="0" stop-color="#a52714" stop-opacity="0.8"/>
      <stop offset="0.5" stop-color="#a52714" stop-opacity="0.212"/>
      <stop offset="1" stop-color="#a52714" stop-opacity="0"/>
    </linearGradient>
    <linearGradient id="linear-gradient-3" x1="-8.947" y1="7.275" x2="-8.556" y2="7.56" gradientUnits="objectBoundingBox">
      <stop offset="0" stop-color="#fff" stop-opacity="0.102"/>
      <stop offset="1" stop-color="#fff" stop-opacity="0"/>
    </linearGradient>
  </defs>
  <g id="firebase" transform="translate(-807 -1691.417)">
    <g id="logo-built_black" transform="translate(807 1691.417)">
      <g id="Layer_1" transform="translate(0 0)">
        <g id="Group_48" data-name="Group 48" transform="translate(0 0)">
          <g id="Group_45" data-name="Group 45" transform="translate(75.214 18.949)">
            <path id="Path_2" data-name="Path 2" d="M250.425,182.633H245.5V144.4h22.33v4.717H250.425V161.68h15.736v4.591H250.467v16.362Z" transform="translate(-245.5 -143.983)" fill="#4d4d4d"/>
            <path id="Path_3" data-name="Path 3" d="M311.027,149.327a3.528,3.528,0,1,1,1-2.463A3.438,3.438,0,0,1,311.027,149.327Zm0,32.723H306.1V155.88h4.925Z" transform="translate(-280.224 -143.4)" fill="#4d4d4d"/>
            <path id="Path_4" data-name="Path 4" d="M337.025,198.6H332.1v-26.17h4.717v4.257h.209a6.551,6.551,0,0,1,3.089-3.506,8.809,8.809,0,0,1,4.508-1.377,9.508,9.508,0,0,1,3.673.626l-1.878,4.591a7.315,7.315,0,0,0-2.63-.376,6.362,6.362,0,0,0-4.717,2.129,7.565,7.565,0,0,0-2.045,5.51Z" transform="translate(-295.954 -159.946)" fill="#4d4d4d"/>
            <path id="Path_5" data-name="Path 5" d="M380.656,199.123a12.617,12.617,0,0,1-9.642-3.965,14.057,14.057,0,0,1-3.715-9.976,14.616,14.616,0,0,1,3.59-9.85,11.7,11.7,0,0,1,9.224-4.132,11.994,11.994,0,0,1,9.308,3.8q3.506,3.819,3.506,10.143l-.042.918H372.225a9.011,9.011,0,0,0,2.63,6.261,7.949,7.949,0,0,0,5.677,2.3c3.506,0,5.927-1.5,7.179-4.508l4.383,1.837a11.5,11.5,0,0,1-4.216,5.092A12.29,12.29,0,0,1,380.656,199.123Zm7.054-17.113a7.019,7.019,0,0,0-2.045-4.257,7.38,7.38,0,0,0-5.635-2.045,7.051,7.051,0,0,0-4.717,1.711,8.7,8.7,0,0,0-2.755,4.591Z" transform="translate(-316.462 -159.597)" fill="#4d4d4d"/>
            <path id="Path_6" data-name="Path 6" d="M450.757,183.509a10.932,10.932,0,0,1-5.384-1.294A8.9,8.9,0,0,1,441.825,179h-.209v3.631H436.9V144.4h4.925v12.063l-.209,3.631h.209a9.212,9.212,0,0,1,3.548-3.214,11.4,11.4,0,0,1,5.384-1.294,11.536,11.536,0,0,1,8.765,4.007,15.27,15.27,0,0,1,0,19.868A11.439,11.439,0,0,1,450.757,183.509ZM449.923,179a7.85,7.85,0,0,0,5.885-2.588,10.745,10.745,0,0,0,0-13.69,7.85,7.85,0,0,0-5.885-2.588,7.746,7.746,0,0,0-5.885,2.546,9.752,9.752,0,0,0-2.421,6.887,9.568,9.568,0,0,0,2.421,6.887A7.81,7.81,0,0,0,449.923,179Z" transform="translate(-357.012 -143.983)" fill="#4d4d4d"/>
            <path id="Path_7" data-name="Path 7" d="M515.567,199.123a10.2,10.2,0,0,1-6.97-2.421,8.543,8.543,0,0,1,.5-13.064,13.386,13.386,0,0,1,8.181-2.421,14.285,14.285,0,0,1,7.1,1.586v-.751a5.958,5.958,0,0,0-1.962-4.633,7.051,7.051,0,0,0-4.842-1.753,7.685,7.685,0,0,0-3.882,1,5.036,5.036,0,0,0-2.379,2.8l-4.508-1.92a10.122,10.122,0,0,1,3.59-4.341,11.5,11.5,0,0,1,7.054-2,12.128,12.128,0,0,1,8.348,2.922c2.212,1.962,3.3,4.717,3.3,8.264v15.861h-4.716v-3.631h-.209A9.643,9.643,0,0,1,515.567,199.123Zm.793-4.508a7.913,7.913,0,0,0,5.51-2.254,7,7,0,0,0,2.5-5.384c-1.377-1.127-3.464-1.711-6.261-1.711a8.048,8.048,0,0,0-5.384,1.544,4.707,4.707,0,0,0-1.837,3.631,3.455,3.455,0,0,0,1.67,3.047A6.663,6.663,0,0,0,516.36,194.616Z" transform="translate(-397.153 -159.597)" fill="#4d4d4d"/>
            <path id="Path_8" data-name="Path 8" d="M578.395,199.182a11.678,11.678,0,0,1-7.221-2.129A12.4,12.4,0,0,1,567,191.71l4.383-1.837c1.377,3.3,3.756,4.925,7.1,4.925a6.445,6.445,0,0,0,3.757-1,3.158,3.158,0,0,0,1.461-2.671c0-1.711-1.21-2.88-3.59-3.464l-5.3-1.294a12.877,12.877,0,0,1-4.758-2.421,5.865,5.865,0,0,1-2.254-4.842,6.678,6.678,0,0,1,3.089-5.635,13.12,13.12,0,0,1,13.482-.584,8.564,8.564,0,0,1,3.882,4.508l-4.257,1.753c-.96-2.3-2.963-3.464-5.969-3.464a6.761,6.761,0,0,0-3.673.918,2.784,2.784,0,0,0-1.5,2.463c0,1.5,1.169,2.5,3.464,3.047l5.176,1.21a10.1,10.1,0,0,1,5.468,2.922,7.111,7.111,0,0,1,1.753,4.717,7.347,7.347,0,0,1-2.88,5.885A11.236,11.236,0,0,1,578.395,199.182Z" transform="translate(-432.809 -159.655)" fill="#4d4d4d"/>
            <path id="Path_9" data-name="Path 9" d="M637.156,199.123a12.617,12.617,0,0,1-9.642-3.965,14.057,14.057,0,0,1-3.715-9.976,14.616,14.616,0,0,1,3.59-9.85,11.7,11.7,0,0,1,9.224-4.132,11.994,11.994,0,0,1,9.308,3.8q3.506,3.819,3.506,10.143l-.042.918H628.725a9.011,9.011,0,0,0,2.63,6.261,7.949,7.949,0,0,0,5.677,2.3c3.506,0,5.927-1.5,7.179-4.508l4.383,1.837a11.494,11.494,0,0,1-4.216,5.092A12.29,12.29,0,0,1,637.156,199.123Zm7.054-17.113a7.019,7.019,0,0,0-2.045-4.257,7.381,7.381,0,0,0-5.635-2.045,7.05,7.05,0,0,0-4.716,1.711,8.7,8.7,0,0,0-2.755,4.591Z" transform="translate(-465.901 -159.597)" fill="#4d4d4d"/>
          </g>
          <g id="Group_47" data-name="Group 47">
            <g id="Group_46" data-name="Group 46" clip-path="url(#clip-path)">
              <path id="Path_10" data-name="Path 10" d="M65.3,157.29l9.057-57.85a1.637,1.637,0,0,1,1.92-1.377,1.735,1.735,0,0,1,1.21.877l9.35,17.447,3.715-7.1a1.658,1.658,0,0,1,2.254-.71,1.929,1.929,0,0,1,.71.71l25.21,48Z" transform="translate(-65.3 -98.021)" fill="#ffa000"/>
              <path id="Path_11" data-name="Path 11" d="M77.543,93.757,33.3,90v80.139l13.356-17.53Z" transform="translate(-46.656 -93.34)" opacity="0.12" fill="url(#linear-gradient)"/>
              <path id="Path_12" data-name="Path 12" d="M96.562,160.307,86.837,141.9,65.3,182.846Z" transform="translate(-65.3 -123.577)" fill="#f57c00"/>
              <path id="Path_13" data-name="Path 13" d="M33.3,90h80.139v80.139H33.3Z" transform="translate(-46.656 -93.34)" opacity="0.2" fill="url(#linear-gradient-2)"/>
              <path id="Path_14" data-name="Path 14" d="M118.726,178.22,111.8,135.354a1.689,1.689,0,0,0-1.92-1.377,1.61,1.61,0,0,0-.918.459L65.3,178.22l24.167,13.565a5.074,5.074,0,0,0,4.883,0Z" transform="translate(-65.3 -118.951)" fill="#ffca28"/>
              <path id="Path_15" data-name="Path 15" d="M111.781,114.446a1.689,1.689,0,0,0-1.92-1.377,1.61,1.61,0,0,0-.918.459l-8.682,8.682-6.8-12.981a1.658,1.658,0,0,0-2.254-.71,1.929,1.929,0,0,0-.71.71l-3.715,7.1L77.43,98.877a1.654,1.654,0,0,0-2.254-.668,1.735,1.735,0,0,0-.877,1.21l-9.057,57.85H65.2l.042.042.25.125,34.769-34.81,8.682-8.682a1.663,1.663,0,0,1,2.379,0,1.493,1.493,0,0,1,.459.918l6.845,42.449.083-.042ZM65.325,157.186,74.3,99.837a1.637,1.637,0,0,1,1.92-1.377,1.735,1.735,0,0,1,1.21.877l9.35,17.447,3.715-7.1a1.658,1.658,0,0,1,2.254-.71,1.929,1.929,0,0,1,.71.71l6.678,12.689Z" transform="translate(-65.242 -98.001)" fill="rgba(255,255,255,0.2)"/>
              <path id="Path_16" data-name="Path 16" d="M94.35,252.623a5.074,5.074,0,0,1-4.883,0L65.342,239.1l-.042.376,24.167,13.565a5.074,5.074,0,0,0,4.883,0l24.376-13.565-.042-.376Z" transform="translate(-65.3 -180.207)" fill="#a52714" opacity="0.2"/>
              <path id="Path_17" data-name="Path 17" d="M111.839,114.446a1.689,1.689,0,0,0-1.92-1.377,1.61,1.61,0,0,0-.918.459l-8.682,8.682-6.8-12.981a1.658,1.658,0,0,0-2.254-.71,1.929,1.929,0,0,0-.71.71l-3.715,7.1-9.35-17.447a1.654,1.654,0,0,0-2.254-.668,1.735,1.735,0,0,0-.877,1.21L65.3,157.27l24.167,13.565a5.074,5.074,0,0,0,4.883,0l24.376-13.565Z" transform="translate(-65.3 -98.001)" fill="url(#linear-gradient-3)"/>
            </g>
          </g>
        </g>
      </g>
    </g>
  </g>
</svg>
