<?xml version="1.0" encoding="UTF-8"?><svg id="Layer_1" xmlns="http://www.w3.org/2000/svg" viewBox="0 0 300 300"><defs><style>.cls-1{fill:#f06529;}.cls-2{fill:#eaeaea;}.cls-3{fill:#fefefe;}.cls-4{fill:#e34d26;}</style></defs><path d="M196.4,39.95c0-5.13,.05-10.25-.03-15.38-.02-1.46,.42-1.87,1.84-1.81,2.65,.11,5.32,.12,7.97,0,1.51-.07,1.82,.5,1.8,1.89-.07,6.13,.13,12.27-.11,18.4-.1,2.57,.76,3,3.04,2.88,3.75-.19,7.51,.03,11.27-.09,1.59-.05,2.02,.46,1.95,1.99-.12,2.56-.11,5.13,0,7.69,.06,1.46-.45,1.85-1.87,1.84-7.97-.06-15.94-.07-23.91,0-1.62,.02-1.99-.52-1.96-2.04,.08-5.13,.03-10.25,.03-15.38Z"/><path class="cls-4" d="M59.51,72.81c1.19,.03,2.38,.08,3.57,.08,58.12,0,116.23,.03,174.35-.07,2.86,0,3.24,.86,3.01,3.4-2.45,26.6-4.79,53.21-7.18,79.82-2.85,31.71-5.73,63.41-8.6,95.12q-.56,6.17-6.42,7.79c-21.86,6.06-43.71,12.11-65.56,18.2-1.73,.48-3.34,.5-5.07,.02-22.9-6.4-45.81-12.78-68.73-19.08-1.97-.54-2.73-1.31-2.91-3.45-1.66-19.69-3.48-39.37-5.24-59.05-1.55-17.41-3.06-34.81-4.61-52.22-1.55-17.4-3.14-34.81-4.7-52.21-.43-4.74-.82-9.48-1.29-14.21-.06-.65,.31-1.51-.6-1.94,0-.73,0-1.47,0-2.2Z"/><path d="M171.22,52.73c-2.59-3.95-5-7.64-7.41-11.32-.2,.03-.4,.07-.6,.1,0,4.22-.12,8.45,.05,12.67,.1,2.37-.37,3.51-3.06,3.2-2.62-.29-6.17,.86-7.69-.47-1.75-1.53-.53-5.15-.55-7.85-.07-8.06,.02-16.11-.07-24.17-.02-1.64,.31-2.23,2.08-2.14,3.29,.18,7.14-.94,9.72,.42,2.45,1.3,3.58,5.09,5.28,7.79,.73,1.15,1.43,2.31,2.35,3.78,2.23-3.63,4.35-6.97,6.34-10.38,.68-1.16,1.41-1.66,2.79-1.6,2.74,.12,5.5,.16,8.24,0,1.83-.11,2.07,.63,2.06,2.21-.06,10.07-.06,20.14,0,30.21,0,1.6-.31,2.32-2.11,2.2-2.46-.16-4.95-.16-7.42,0-1.81,.12-2.13-.63-2.1-2.21,.09-4.53,.03-9.05-.51-13.73-2.4,3.67-4.81,7.35-7.4,11.31Z"/><path d="M76.56,39.98c0-5.13,.05-10.26-.03-15.38-.02-1.4,.32-1.91,1.8-1.84,2.74,.12,5.5,.11,8.24,0,1.37-.05,1.7,.44,1.65,1.72-.09,2.56,.04,5.13-.05,7.69-.05,1.44,.2,2.22,1.91,2.1,2.72-.18,6.21,.83,7.96-.51,1.68-1.28,.64-4.99,.43-7.58-.24-2.96,.81-3.75,3.58-3.44,2.17,.24,4.4,.1,6.59,.03,1.16-.04,1.59,.26,1.58,1.51-.05,10.44-.06,20.88,0,31.31,0,1.56-.62,1.8-1.95,1.76-2.56-.08-5.14-.15-7.69,.02-1.82,.12-2.14-.61-2.06-2.2,.12-2.47-.07-4.95,.07-7.41,.09-1.63-.51-1.99-2.01-1.92-2.28,.12-4.58,.09-6.87,0-1.22-.04-1.58,.4-1.54,1.58,.08,2.65-.07,5.31,.06,7.96,.08,1.62-.52,2.02-2.04,1.96-2.56-.11-5.14-.12-7.69,0-1.59,.08-2-.46-1.98-2,.09-5.13,.03-10.25,.03-15.38Z"/><path d="M131.19,22.79c4.67,0,9.34,.06,14.01-.03,1.46-.03,1.87,.4,1.81,1.83-.11,2.74-.09,5.49,0,8.23,.04,1.2-.33,1.59-1.54,1.54-2.19-.09-4.4,.09-6.59-.06-1.7-.12-2.14,.42-2.12,2.11,.11,6.22-.01,12.44,.08,18.66,.02,1.74-.39,2.46-2.28,2.31-2.18-.18-4.41-.22-6.58,0-2.43,.25-2.84-.75-2.78-2.92,.15-5.85-.07-11.71,.11-17.56,.07-2.27-.71-2.78-2.74-2.59-1.73,.16-3.48-.06-5.21,.06-1.66,.12-2.48-.2-2.33-2.15,.19-2.45,.18-4.95,0-7.4-.13-1.8,.56-2.09,2.16-2.05,4.67,.1,9.34,.04,14.01,.04Z"/><path class="cls-1" d="M93.62,110.7c.93-.9,2.09-.5,3.14-.5,16.86-.03,33.73-.06,50.59,.03,2.22,.01,3.05-.51,2.98-2.87-.16-5.67,.02-11.36-.09-17.03-.04-1.97,.44-2.72,2.58-2.71,22.91,.07,45.83,.07,68.74,0,1.95,0,2.64,.63,2.45,2.52-.54,5.33-1.02,10.67-1.51,16.01-.43,4.71-.82,9.42-1.25,14.13-.7,7.69-1.45,15.38-2.12,23.08-.62,7.07-1.11,14.15-1.74,21.22-.64,7.15-1.41,14.29-2.08,21.44-.45,4.8-.77,9.61-1.22,14.42-.68,7.33-1.57,14.64-2.05,21.99-.33,5-.75,9.98-1.23,14.96-.22,2.26-.4,4.53-.56,6.8-.08,1.09-.64,1.51-1.68,1.8-15.21,4.18-30.42,8.4-45.62,12.62-3.16,.88-6.31,1.83-9.48,2.67-3.16,.83-3.18,.79-3.18-2.41,0-6.69,0-13.37,0-20.06,.7-1.46,2.21-1.54,3.48-1.9,12.33-3.51,24.69-6.91,37.06-10.3,5.09-1.4,4.95-1.37,5.46-6.61,1.29-13.28,2.32-26.59,3.62-39.88,.63-6.46,1.12-12.93,1.74-19.39,.29-3.04-.17-3.52-3.3-3.52-14.65-.03-29.31,0-43.96-.03-1.51,0-3.15,.34-4.42-.94-.49-.82-.54-1.73-.55-2.64-.04-5.82-.04-11.64,0-17.46,0-1,.04-2.01,.65-2.88,1.34-1.09,2.95-.83,4.48-.83,14.74-.02,29.48-.01,44.22-.01,.92,0,1.83-.02,2.75-.03,1.78,0,2.71-.88,2.83-2.64,.37-5.29,1-10.55,1.38-15.84,.11-1.57-.5-2.19-1.98-2.23-1.01-.03-2.01-.03-3.02-.04-17.03-.04-34.05,.08-51.08-.06-17.65,.17-35.3,.05-52.95,.06-1.11,0-2.2-.1-3.08-.92Z"/><path class="cls-2" d="M93.62,110.7c18.71,.03,37.43,.06,56.14,.09,.77,.79,.83,1.81,.84,2.81,.05,5.66,.05,11.32,0,16.98,0,.91-.07,1.83-.65,2.61-1.18,1.2-2.72,.91-4.14,.92-7.41,.04-14.82,0-22.23,.02-4.15,0-4.13,.02-3.85,4.03,.33,4.74,.9,9.46,1.14,14.2,.12,2.41,1.24,3.15,3.45,3.14,7.14-.02,14.27-.03,21.41,0,1.43,0,2.96-.26,4.19,.85,.61,.87,.69,1.86,.7,2.87,.04,5.63,.04,11.26,0,16.89,0,1-.04,2.01-.76,2.83-.6,.31-1.25,.21-1.89,.21-15.46,0-30.93,0-46.39,0-.63,0-1.29,.11-1.88-.22-.7-7-1.44-13.99-2.08-20.99-1.32-14.47-2.6-28.94-3.88-43.42-.11-1.27-.07-2.56-.1-3.83Z"/><path class="cls-3" d="M149.75,178.84c0-7.46,0-14.92,0-22.38,.11-.24,.29-.3,.53-.19,16.49,.03,32.98,.12,49.48,.03,2.47-.01,3.07,.59,2.84,3.01-1.67,17.57-3.23,35.15-4.81,52.73-.33,3.64-.67,7.29-.88,10.94-.12,2.06-.85,3.12-3.03,3.7-14.13,3.77-28.22,7.72-42.31,11.62-.44,.12-.85,.33-1.27,.5-.17-.07-.35-.12-.53-.15-.74-.68-.85-1.59-.86-2.51-.06-6.27-.09-12.55,.01-18.82,.01-.64,.14-1.27,.44-1.84,1.28-1.24,2.84-1.88,4.55-2.34,5.75-1.53,11.48-3.12,17.24-4.59,2.45-.62,3.53-1.77,3.78-4.47,.64-7.1,1.07-14.21,1.9-21.29,.3-2.58-.12-3.05-2.82-3.07-6.77-.05-13.55,0-20.32-.02-1.36,0-2.77,.12-3.92-.86Z"/><path class="cls-2" d="M149.75,215.15c0,7.83,0,15.67,0,23.5-14.84-4.13-29.67-8.28-44.52-12.37-1.19-.33-1.62-.87-1.72-2.04-.9-10.56-1.8-21.13-2.8-31.68-.19-1.97,.41-2.51,2.35-2.48,6.04,.11,12.09,.1,18.13,0,1.63-.03,2.25,.45,2.38,2.08,.36,4.74,.87,9.46,1.3,14.2,.09,1.01,.04,1.91,1.41,2.26,7.79,1.98,15.55,4.05,23.32,6.09,.39,.04,.44,.19,.14,.44Z"/><path class="cls-1" d="M149.75,215.15c-.04-.15-.09-.3-.14-.44,.99-.75,.65-1.84,.65-2.8,.02-9.88-.06-19.77,.07-29.65,.03-2.39-.81-2.86-3-2.85-14.84,.08-29.68,.05-44.52,.02-1.05,0-2.21,.4-3.14-.49,16.69-.03,33.39-.07,50.08-.1,8.41,.05,16.82,.17,25.23,.09,2.22-.02,3.04,.39,2.78,2.83-.87,8.17-1.56,16.35-2.21,24.54-.13,1.59-.84,2.11-2.28,2.49-7.86,2.06-15.68,4.23-23.52,6.36Z"/><path class="cls-3" d="M149.75,133.17c0-7.46,0-14.92,0-22.38,4.85-.05,9.69-.13,14.54-.14,13.36-.02,26.72,.04,40.08-.05,2.11-.01,2.59,.5,2.34,2.63-.7,5.89-1.17,11.82-1.6,17.74-.14,1.86-.83,2.35-2.68,2.35-17.39-.05-34.77,.01-52.16,.04-.24,.11-.41,.05-.53-.19Z"/><path class="cls-4" d="M149.75,133.17c.18,.06,.35,.13,.53,.19,0,7.64,0,15.27,0,22.91-.18,.06-.35,.13-.53,.19-8.98-.03-17.96-.14-26.93-.04-2.1,.02-2.62-.72-2.76-2.61-.45-6.02-.96-12.03-1.63-18.03-.25-2.17,.45-2.56,2.47-2.55,9.62,.07,19.24-.02,28.86-.05Z"/></svg>