<?xml version="1.0" encoding="UTF-8"?><svg id="Layer_1" xmlns="http://www.w3.org/2000/svg" viewBox="0 0 300 300"><defs><style>.cls-1{fill:#eaeaea;}.cls-2{fill:#fefefe;}.cls-3{fill:#89ce17;}.cls-4{fill:#63a714;}</style></defs><path class="cls-4" d="M149.9,72.72c29.25,0,58.5,.03,87.74-.06,2.41,0,2.8,.62,2.58,2.92-1.69,17.86-3.23,35.73-4.83,53.59-1.75,19.51-3.55,39.01-5.3,58.51-1.54,17.23-3.04,34.45-4.57,51.68-.47,5.29-1.02,10.57-1.43,15.86-.11,1.37-.56,2.03-1.95,2.42-23.64,6.49-47.26,13.03-70.88,19.6-1.03,.29-1.92,.23-2.92-.05-23.44-6.51-46.9-13-70.35-19.46-1.39-.38-2.03-.94-2.17-2.56-2.33-26.99-4.73-53.97-7.15-80.95-2.49-27.71-5.01-55.41-7.5-83.12-.48-5.29-.74-10.6-1.38-15.86-.26-2.19,.32-2.57,2.37-2.57,29.25,.06,58.5,.04,87.74,.04Z"/><path d="M165.21,45.37c-3.94-3.04-7.86-6.12-11.84-9.11-1.04-.78-1.55-1.57-1.49-2.93,.12-2.93,.08-5.86,.01-8.79-.03-1.29,.12-1.98,1.72-1.96,9.71,.07,19.43,.06,29.14,.01,1.19,0,1.58,.31,1.55,1.53-.08,3.11-.11,6.23,0,9.34,.06,1.6-.66,1.75-1.96,1.73-3.71-.07-7.43-.02-11.92-.02,4.51,3.56,8.39,6.67,12.33,9.7,1.02,.78,1.61,1.53,1.54,2.92-.15,3.01,1.01,6.95-.48,8.78-1.56,1.91-5.66,.52-8.64,.56-7.05,.09-14.11-.03-21.17,.07-1.72,.02-2.24-.48-2.14-2.17,.14-2.28,.18-4.59,0-6.86-.16-1.97,.7-2.26,2.37-2.22,3.6,.1,7.21,.03,10.81,.03l.16-.6Z"/><path d="M146.78,40.21c0,4.94-.07,9.89,.04,14.83,.04,1.7-.45,2.17-2.15,2.16-9.25-.08-18.5-.07-27.76,0-1.47,0-2.15-.25-2.07-1.92,.13-2.83,.14-5.68,0-8.51-.09-1.72,.68-1.92,2.1-1.9,4.58,.07,9.16-.08,13.74,.07,1.99,.06,2.43-.64,2.39-2.49-.11-5.95,0-11.9-.08-17.85-.02-1.51,.32-2.06,1.94-2,3.29,.13,6.6,.11,9.89,0,1.55-.05,2.03,.4,2,1.98-.09,5.22-.04,10.43-.04,15.65Z"/><path class="cls-3" d="M149.63,109.97c0-6.69,.07-13.38-.03-20.06-.03-1.94,.62-2.49,2.52-2.48,23.11,.05,46.21,.06,69.32-.01,2.26,0,2.65,.92,2.42,2.79-1.22,10.12-1.89,20.3-2.77,30.45-.96,11.15-2.2,22.28-3.21,33.42-.67,7.44-1.07,14.9-1.73,22.34-.82,9.15-1.83,18.29-2.66,27.44-.65,7.26-1.12,14.53-1.73,21.79-.51,6.08-1.12,12.15-1.63,18.22-.1,1.22-.69,1.64-1.83,1.96-18.84,5.17-37.66,10.37-56.47,15.63-1.93,.54-2.21-.29-2.2-1.88,.03-6.96,0-13.92,0-20.89,.29-.63,.84-.97,1.44-1.24,13.27-3.85,26.64-7.36,39.95-11.09,4.39-1.23,4.53-1.22,4.91-5.6,.79-9.01,1.57-18.02,2.4-27.03,1.03-11.19,2.05-22.38,3.05-33.58,.83-9.28,1.75-18.56,2.48-27.85,.39-4.92,.83-9.83,1.37-14.74,.21-1.92,.38-3.82,.13-5.73-.8-1.52-2.24-1.02-3.44-1.02-16.13-.03-32.25,0-48.38-.04-1.33,0-2.78,.35-3.9-.79Z"/><path class="cls-3" d="M149.64,214.46c0-26-.05-52,.07-78,.01-2.88-.84-3.46-3.54-3.44-16.13,.12-32.25,.07-48.38,.04-1.05,0-2.21,.4-3.15-.47,.86-.85,1.96-.93,3.07-.93,17.19,.01,34.39-.13,51.58,.06,9.8-.05,19.6-.04,29.39,0,3.62,.01,4.03,.46,3.75,3.96-.94,11.85-2.19,23.67-3.32,35.5-1.08,11.28-2.17,22.57-3.23,33.85-.24,2.56-1.3,3.93-3.83,4.56-7.01,1.75-13.9,3.99-20.99,5.43-.54-.02-1.02-.17-1.4-.57Z"/><path class="cls-1" d="M149.64,214.46c.35,.03,.7,.06,1.06,.09-.31,7.86-.52,15.72,.09,23.58-.39,.19-.78,.37-1.17,.56-10.56-2.94-21.12-5.9-31.68-8.83-4.31-1.2-8.64-2.35-12.97-3.49-1.34-.35-2.08-.82-2.2-2.51-.73-10.58-1.59-21.15-2.55-31.71-.18-2,.56-2.26,2.24-2.24,5.86,.07,11.73,.16,17.58-.03,2.39-.08,2.93,.9,3.06,2.96,.29,4.47,.75,8.93,1.12,13.39,.08,.92,.02,1.81,1.25,2.1,8.08,1.92,15.99,4.51,24.15,6.14Z"/><path class="cls-1" d="M149.64,132.51c-18.33,.03-36.67,.06-55,.09-.53-6.65-.99-13.31-1.63-19.95-.2-2.09,.39-2.61,2.47-2.6,16.95,.09,33.91,.05,50.86,.04,1.1,0,2.19-.08,3.29-.12,18.2,.03,36.4,.04,54.61,.12,.95,0,3.01-.87,2.12,1.68-2.73-.38-5.47-.33-8.22-.33-14.63,0-29.27,0-43.9,.01-3.55,0-3.71,.19-3.73,3.71-.03,4.57,.01,9.14-.02,13.71,0,1.27,.11,2.59-.85,3.64Z"/><path class="cls-2" d="M149.64,132.51c0-6.49,.05-12.99-.06-19.48-.03-1.93,.59-2.5,2.5-2.49,17.3,.06,34.61,.04,51.91,.04,.97,0,2.11-.25,2.37,1.19-.83,9.94-1.63,19.88-2.51,29.81-1.16,13.03-2.4,26.05-3.58,39.08-1.31,14.49-2.6,28.97-3.88,43.46-.09,.96-.19,1.66-1.39,1.98-14.74,3.97-29.47,8.01-44.2,12.03-1.3-.18-1.18-1.17-1.18-2.08,0-6.39,.03-12.78-.03-19.17,0-1.03,.35-1.73,1.11-2.32,7.14-1.94,14.26-3.95,21.43-5.79,1.93-.5,2.75-1.22,2.95-3.39,2.15-23.56,4.43-47.12,6.78-70.66,.19-1.94-.46-2.1-2.01-2.09-9.06,.04-18.13,.03-27.19,.02-1,0-2.01-.08-3.01-.12Z"/></svg>