<?xml version="1.0" encoding="UTF-8"?><svg id="Layer_1" xmlns="http://www.w3.org/2000/svg" viewBox="0 0 641.61 593.59"><defs><style>.cls-1{fill:#fff;}.cls-2{fill:#d60005;}</style></defs><g><path d="M77.98,444.71v-15.23h29.92v-16.18h17.95v16.18h29.92v15.23H77.98Zm38.9,4.76c18.63,0,31.96,11.29,31.96,29.1s-13.33,29.1-31.96,29.1-31.96-11.29-31.96-29.1,13.33-29.1,31.96-29.1Zm0,43.11c8.57,0,14.14-5.85,14.14-14.01s-5.58-14.01-14.14-14.01-14.14,5.85-14.14,14.01,5.58,14.01,14.14,14.01Zm82.42-19.99h-17.54v54.54h-17.95v-113.29h17.95v43.52h17.54v15.23Z"/><path d="M253.83,532.03v-27.88h-46.78v-15.23h111.52v15.23h-46.79v27.88h-17.95Zm-14.69-67.46h68.27v14.96h-75.62c-6.94,0-10.47-3.54-10.47-10.47v-28.7h65.42v-8.84h-65.42v-14.96h83.23v38.35h-65.42v9.66Z"/><path d="M343.99,503.6c-7.75,0-11.83-4.08-11.83-11.83v-71.81h60.38v71.81c0,7.75-4.08,11.83-11.83,11.83h-36.72Zm30.6-15.23v-53.18h-24.48v53.18h24.48Zm72.22-22.3h-17.54v61.06h-17.95v-113.29h17.95v36.99h17.54v15.23Z"/><path d="M506.24,418.33v60.93h-17.27v-18.9h-36.45v-14.96h36.45v-11.97h-35.77v-15.1h53.04Zm-22.44,116.69l-11.56-12.92c14.14-11.29,30.74-25.3,45.02-37.81h1.36c14.28,12.38,30.87,26.38,45.02,37.81l-11.56,12.92c-10.61-8.57-23.8-19.72-34.14-29.24-10.47,9.52-23.66,20.67-34.14,29.24Zm25.84-96.7h10.47v-23.8h16.59v66.1h-16.59v-27.06h-10.47v-15.23Zm50.05,49.64h-16.73v-74.12h16.73v74.12Z"/></g><g><rect class="cls-2" x="199.93" y="58.57" width="241.75" height="241.75" rx="54.5" ry="54.5"/><polygon class="cls-1" points="346.14 98.26 346.14 161.23 295.47 161.23 295.47 98.26 258.17 98.26 258.17 260.62 295.47 260.62 295.47 193.71 346.14 193.71 346.14 260.62 383.45 260.62 383.45 98.26 346.14 98.26"/></g><g><path d="M99.38,373.93v-2.89h-12.41v-2.38h27.67v2.38h-12.41v2.89h-2.86Zm-9.15-14.62v-2.38h20.81v2.38h-7.55c2.86,2.18,5.71,4.11,8.74,6.12l-1.7,2.07c-3.23-2.18-6.49-4.52-9.83-6.97-3.26,2.38-6.6,4.76-9.93,7.07l-1.67-2.07c2.99-2.04,5.92-4.11,8.84-6.22h-7.72Zm10.57,15.98c4.49,0,7.68,2.41,7.68,6.09s-3.2,6.08-7.68,6.08-7.68-2.41-7.68-6.08,3.2-6.09,7.68-6.09Zm0,2.35c-2.82,0-4.86,1.29-4.86,3.74s2.04,3.74,4.86,3.74,4.86-1.29,4.86-3.74-2.04-3.74-4.86-3.74Z"/><path d="M135.56,368.7v10.74h14.45v2.38h-27.67v-2.38h10.37v-10.74h2.86Zm10.67-10.91v15.33h-2.86v-12.95h-17.95v-2.38h20.81Z"/><path d="M172.96,357.99v20.5h-2.86v-18.02h-11.22v-2.48h14.08Zm9.86,26.38h-2.86v-15.81h-5.47v-2.38h5.47v-9.93h2.86v28.12Z"/><path d="M196.42,376.01h10.4v2.38h-11.15c-1.39,0-2.04-.65-2.04-2.04v-9.59h9.04v-6.59h-9.04v-2.38h11.83v11.29h-9.04v6.94Zm13.46-19.58h2.79v10.2h3.94v-10.37h2.79v28.12h-2.79v-15.37h-3.94v15.2h-2.79v-27.78Z"/><path d="M229.64,378.96h3.3l-2.96,8.12h-2.18l1.83-8.12Z"/><path d="M266.29,358.29c5,0,8.36,3.67,8.36,8.26s-3.37,8.26-8.36,8.26-8.36-3.67-8.36-8.26,3.37-8.26,8.36-8.26Zm0,2.35c-3.57,0-5.54,2.69-5.54,5.92s1.97,5.92,5.54,5.92,5.54-2.69,5.54-5.92-1.97-5.92-5.54-5.92Zm16.86,23.73h-2.86v-28.12h2.86v28.12Z"/><path d="M293.69,360.37v-2.38h13.67v2.38h-5.54c2.07,5.88,4.05,11.66,6.12,17.17l-2.38,1.02c-1.73-4.73-3.33-9.52-4.93-14.31-1.46,4.39-3.16,9.38-5.07,14.58l-2.52-.99c2.31-5.95,4.35-11.8,6.32-17.47h-5.68Zm12.92,5.24h4.69v-9.18h2.72v27.78h-2.72v-16.22h-4.69v-2.38Zm13.12,18.77h-2.79v-28.12h2.79v28.12Z"/><path d="M344.62,357.79h2.79v17.81h10.06v2.38h-10.64c-1.39,0-2.21-.82-2.21-2.21v-17.98Zm25.26,26.58h-2.79v-15.6h-4.11v15.43h-2.79v-27.78h2.79v9.96h4.11v-10.13h2.79v28.12Z"/><path d="M408.54,365.98v5.54h12.48v2.38h-27.67v-2.38h12.34v-5.54h2.86Zm-13.22,.2c3.71-3.2,7.72-6.8,11.63-10.44h.34c4.01,3.74,7.96,7.38,11.42,10.33l-1.8,2.04c-3.5-3.13-7-6.22-9.79-8.94-2.69,2.52-6.29,5.68-9.96,8.94l-1.84-1.94Zm22.95,17.51v2.38h-19.41c-1.33,0-2.11-.78-2.11-2.11v-6.93h2.86v6.66h18.67Z"/><path d="M431.29,378.45c-1.43,0-2.18-.75-2.18-2.18v-18.66h2.86v7.55h8.8v-7.55h2.86v18.66c0,1.43-.78,2.18-2.21,2.18h-10.13Zm9.48-2.38v-8.53h-8.8v8.53h8.8Zm16.59-7.62h-5.24v15.91h-2.86v-28.12h2.86v9.83h5.24v2.38Z"/><path d="M481.16,370.4h-13.87c-1.43,0-2.21-.78-2.21-2.21v-10.91h14.18v2.38h-11.32v8.36h13.22v2.38Zm3.64,16.11v-9.28h-16.83v-2.38h19.68v11.66h-2.86Zm7.75-21.38h-4.9v8.19h-2.86v-17.07h2.86v6.49h4.9v2.38Z"/><path d="M521.66,356.93c4.66,0,7.72,3.16,7.72,7.41s-3.06,7.41-7.72,7.41-7.72-3.16-7.72-7.41,3.06-7.41,7.72-7.41Zm0,2.35c-3.06,0-4.9,2.01-4.9,5.07s1.84,5.07,4.9,5.07,4.9-2.01,4.9-5.07-1.84-5.07-4.9-5.07Zm16.69,24.44v2.38h-17.61c-1.33,0-2.11-.78-2.11-2.11v-8.02h2.86v7.75h16.86Zm4.18-17.03h-4.9v10.44h-2.86v-20.87h2.86v8.06h4.9v2.38Z"/><path d="M551.1,378.96h3.54v3.88h-3.54v-3.88Zm3.2-2.72h-2.86v-18.49h2.86v18.49Z"/></g></svg>