<?xml version="1.0" encoding="UTF-8"?><svg id="Layer_1" xmlns="http://www.w3.org/2000/svg" viewBox="0 0 92 92"><defs><style>.cls-1{fill:#fd2c52;}</style></defs><path class="cls-1" d="M79.35,1.84V41.17c0,1.71-.16,3.55-.48,5.52-.32,1.97-.69,3.52-1.12,4.64-.48,1.28-1.05,2.48-1.72,3.6-.67,1.12-1.4,2.08-2.2,2.88-.8,.8-1.72,1.53-2.76,2.2-1.04,.67-2.09,1.21-3.16,1.64-1.23,.48-2.57,.84-4.04,1.08-1.47,.24-2.79,.36-3.96,.36-1.33,0-2.77-.12-4.32-.36-1.55-.24-2.99-.6-4.32-1.08-1.12-.43-2.32-1.08-3.6-1.96-1.28-.88-2.27-1.77-2.96-2.68-.69-.91-1.33-2-1.92-3.28-.59-1.28-1.04-2.64-1.36-4.08-.21-.85-.4-2.03-.56-3.52-.16-1.49-.24-2.88-.24-4.16h12.32c0,.48,.03,1.08,.08,1.8,.05,.72,.11,1.35,.16,1.88,.11,.59,.25,1.24,.44,1.96,.19,.72,.39,1.35,.6,1.88,.27,.53,.64,1.08,1.12,1.64s.91,.97,1.28,1.24c.43,.27,.95,.49,1.56,.68,.61,.19,1.19,.28,1.72,.28s1.07-.05,1.6-.16c.53-.11,1.07-.29,1.6-.56,.48-.27,.99-.68,1.52-1.24,.53-.56,.93-1.16,1.2-1.8,.27-.59,.53-1.55,.8-2.88,.27-1.33,.4-2.69,.4-4.08V.71H18.91C8.86,.71,.71,8.86,.71,18.91v54.17c0,10.05,8.15,18.2,18.2,18.2h54.17c10.05,0,18.2-8.15,18.2-18.2V18.91c0-7.85-4.98-14.52-11.94-17.07Z"/></svg>