<?xml version="1.0" encoding="UTF-8"?><svg xmlns="http://www.w3.org/2000/svg" xmlns:xlink="http://www.w3.org/1999/xlink" viewBox="0 0 92 92"><defs><style>.cls-1{fill:#fff;}.cls-2{fill:#fd2c52;}.cls-3{fill:url(#linear-gradient);mix-blend-mode:multiply;opacity:.8;}.cls-4{isolation:isolate;}</style><linearGradient id="linear-gradient" x1="46.1" y1="-21.56" x2="46.1" y2="224.17" gradientUnits="userSpaceOnUse"><stop offset=".02" stop-color="#fff"/><stop offset=".04" stop-color="#f7f7f7"/><stop offset=".37" stop-color="#8f8f8f"/><stop offset=".63" stop-color="#424242"/><stop offset=".81" stop-color="#121212"/><stop offset=".9" stop-color="#000"/></linearGradient></defs><g class="cls-4"><g id="Layer_1"><g><rect class="cls-2" x=".81" y=".81" width="90.58" height="90.58" rx="18.2" ry="18.2"/><rect class="cls-3" x=".81" y=".81" width="90.58" height="90.58" rx="18.2" ry="18.2"/><path class="cls-1" d="M62.18,14.1V55.06c0,1.71-.16,3.55-.48,5.52-.32,1.97-.69,3.52-1.12,4.64-.48,1.28-1.05,2.48-1.72,3.6-.67,1.12-1.4,2.08-2.2,2.88-.8,.8-1.72,1.53-2.76,2.2-1.04,.67-2.09,1.21-3.16,1.64-1.23,.48-2.57,.84-4.04,1.08-1.47,.24-2.79,.36-3.96,.36-1.33,0-2.77-.12-4.32-.36-1.55-.24-2.99-.6-4.32-1.08-1.12-.43-2.32-1.08-3.6-1.96-1.28-.88-2.27-1.77-2.96-2.68-.69-.91-1.33-2-1.92-3.28-.59-1.28-1.04-2.64-1.36-4.08-.21-.85-.4-2.03-.56-3.52-.16-1.49-.24-2.88-.24-4.16h12.32c0,.48,.03,1.08,.08,1.8,.05,.72,.11,1.35,.16,1.88,.11,.59,.25,1.24,.44,1.96,.19,.72,.39,1.35,.6,1.88,.27,.53,.64,1.08,1.12,1.64,.48,.56,.91,.97,1.28,1.24,.43,.27,.95,.49,1.56,.68,.61,.19,1.19,.28,1.72,.28s1.07-.05,1.6-.16c.53-.11,1.07-.29,1.6-.56,.48-.27,.99-.68,1.52-1.24,.53-.56,.93-1.16,1.2-1.8,.27-.59,.53-1.55,.8-2.88,.27-1.33,.4-2.69,.4-4.08V14.1h12.32Z"/></g></g></g></svg>