<?xml version="1.0" encoding="utf-8"?>
<!-- Generator: Adobe Illustrator 27.0.0, SVG Export Plug-In . SVG Version: 6.00 Build 0)  -->
<svg version="1.1" id="Layer_1" xmlns="http://www.w3.org/2000/svg" xmlns:xlink="http://www.w3.org/1999/xlink" x="0px" y="0px"
	 viewBox="0 0 92 92" style="enable-background:new 0 0 92 92;" xml:space="preserve">
<style type="text/css">
	.st0{fill:#FFFFFF;}
	.st1{fill:#FD2C52;}
</style>
<path class="st0" d="M22,0h48c12.1,0,22,9.8,22,22v48c0,12.1-9.8,22-22,22H22C9.8,92,0,82.2,0,70V22C0,9.8,9.8,0,22,0z"/>
<path class="st1" d="M79.3,1.8v39.3c0,1.7-0.2,3.5-0.5,5.5s-0.7,3.5-1.1,4.6c-0.5,1.3-1.1,2.5-1.7,3.6s-1.4,2.1-2.2,2.9
	c-0.8,0.8-1.7,1.5-2.8,2.2c-1,0.7-2.1,1.2-3.2,1.6c-1.2,0.5-2.6,0.8-4,1.1s-2.8,0.4-4,0.4c-1.3,0-2.8-0.1-4.3-0.4s-3-0.6-4.3-1.1
	c-1.1-0.4-2.3-1.1-3.6-2c-1.3-0.9-2.3-1.8-3-2.7s-1.3-2-1.9-3.3c-0.6-1.3-1-2.6-1.4-4.1c-0.2-0.8-0.4-2-0.6-3.5s-0.2-2.9-0.2-4.2
	h12.3c0,0.5,0,1.1,0.1,1.8c0,0.7,0.1,1.3,0.2,1.9c0.1,0.6,0.2,1.2,0.4,2c0.2,0.7,0.4,1.3,0.6,1.9c0.3,0.5,0.6,1.1,1.1,1.6
	s0.9,1,1.3,1.2c0.4,0.3,1,0.5,1.6,0.7s1.2,0.3,1.7,0.3s1.1,0,1.6-0.2s1.1-0.3,1.6-0.6c0.5-0.3,1-0.7,1.5-1.2s0.9-1.2,1.2-1.8
	c0.3-0.6,0.5-1.5,0.8-2.9c0.3-1.3,0.4-2.7,0.4-4.1V0.7H18.9C8.9,0.7,0.7,8.9,0.7,18.9v54.2c0,10.1,8.1,18.2,18.2,18.2h54.2
	c10.1,0,18.2-8.2,18.2-18.2V18.9C91.3,11.1,86.3,4.4,79.3,1.8L79.3,1.8z"/>
</svg>
