<svg xmlns="http://www.w3.org/2000/svg" width="109" height="109" viewBox="0 0 109 109">
  <g id="icon_git" transform="translate(-1416 -7717)">
    <circle id="Ellipse_15" data-name="Ellipse 15" cx="54.5" cy="54.5" r="54.5" transform="translate(1416 7717)" fill="#fff" opacity="0.3"/>
    <path id="git" d="M68.448,31.774,37.985,1.316a4.491,4.491,0,0,0-6.353,0L25.309,7.639l8.023,8.023a5.333,5.333,0,0,1,6.759,6.8L47.823,30.2a5.35,5.35,0,1,1-3.2,3.013L37.41,26V44.982a5.346,5.346,0,1,1-4.4-.157V25.67a5.346,5.346,0,0,1-2.9-7.012L22.2,10.748,1.317,31.635a4.491,4.491,0,0,0,0,6.353L31.78,68.451a4.491,4.491,0,0,0,6.353,0L68.452,38.132a4.5,4.5,0,0,0,0-6.353" transform="translate(1435.999 7737)" fill="#fff" opacity="0.7"/>
  </g>
</svg>
