<svg xmlns="http://www.w3.org/2000/svg" width="109" height="109" viewBox="0 0 109 109">
    <g transform="translate(-1289 -7718)">
        <circle data-name="Ellipse 16" cx="54.5" cy="54.5" r="54.5" transform="translate(1289 7718)" style="opacity:.3;fill:#fff"/>
        <path data-name="icon_velog" d="M69.567 19.233c-4.644-2.331-11.8-.069-14.511 4.644.811.613 1.6 1.295 2.469 1.839 4.135 2.581 5.214 6.25 4.152 10.851-1.442 6.241-4.5 11.723-7.933 17.006-1.726 2.659-3.721 5.136-5.758 7.916a6.5 6.5 0 0 1-.475-1.027q-1.554-8.753-3.082-17.507c-1.191-6.8-2.348-13.622-3.6-20.416-.527-2.857-2.167-4.126-5.059-4.135a11.934 11.934 0 0 0-2.935.294c-4.109 1.088-8.2 2.262-12.3 3.393-2.987.82-2.952.811-2.84 3.885.043 1.165.414 1.64 1.64 1.6 2.469-.078 4.938.052 7.407-.026 1.165-.035 1.666.354 1.839 1.493.311 2.072.751 4.126 1.122 6.2q3.224 18.141 6.405 36.282c.224 1.3.794 1.606 1.977 1.459a19.222 19.222 0 0 1 4.428-.328c3.358.345 5.352-1.191 7.312-3.807 6.682-8.952 13.674-17.679 19-27.546 2.5-4.627 4.618-9.444 4.679-14.865.035-3.116-.984-5.723-3.928-7.2z" transform="translate(1298.342 7726.692)" style="opacity:.7;fill:#fff"/>
    </g>
</svg>
