<?xml version="1.0" encoding="UTF-8"?><svg id="Layer_1" xmlns="http://www.w3.org/2000/svg" xmlns:xlink="http://www.w3.org/1999/xlink" viewBox="0 0 100 100"><defs><style>.cls-1{fill:url(#linear-gradient);}.cls-2{fill:#fff;}</style><linearGradient id="linear-gradient" x1="51" y1="-70.82" x2="51" y2="58.53" gradientUnits="userSpaceOnUse"><stop offset=".02" stop-color="#fff"/><stop offset=".04" stop-color="#f7f7f7"/><stop offset=".37" stop-color="#8f8f8f"/><stop offset=".63" stop-color="#424242"/><stop offset=".81" stop-color="#121212"/><stop offset=".9" stop-color="#000"/></linearGradient></defs><rect class="cls-1" x="5.71" y="4.71" width="90.58" height="90.58" rx="18.2" ry="18.2"/><path class="cls-2" d="M80.87,59.63c-1.74,1.4-2.99,2.09-3.76,2.09-.57,0-.86-.45-.86-1.35,0-.52,.12-1.45,.36-2.8,.24-1.35,.52-2.61,.86-3.79l3.72-15.1h-5.94l-1.22,4.51c-1.05-1.57-2.16-2.72-3.33-3.43-1.17-.72-2.47-1.07-3.9-1.07-3.53,0-6.8,1.74-9.8,5.22-2.13,2.48-3.55,5.26-4.28,8.33-1.48,.92-3.29,1.81-5.45,2.66-2.42,.93-4.67,1.63-6.77,2.09,.19-.6,.72-2.23,1.6-4.88,.88-2.65,1.51-4.65,1.88-6,1.81,0,3.06-.23,3.73-.7,.67-.46,1.01-1.63,1.01-3.49,0-.28-.21-.42-.63-.42l-3,.21c.93-4.65,1.4-8.56,1.4-11.72,0-4.37-.88-7.84-2.65-10.4-1.77-2.56-4.14-3.84-7.12-3.84-3.54,0-6.63,1.67-9.28,5.02s-3.98,7.21-3.98,11.58,1.49,7.56,4.47,9.84c2.47,1.91,5.93,3.09,10.4,3.56-1.02,3.86-2.42,8.14-4.19,12.84-7.63,1.95-12.61,3.58-14.93,4.88-2.98,1.63-4.47,3.95-4.47,6.98,0,2.09,.65,3.79,1.95,5.09s2.98,1.95,5.02,1.95c4.42,0,8.4-2.19,11.93-6.56,2.14-2.61,3.88-5.65,5.23-9.14,.88-.23,3.37-.81,7.47-1.74,2.26-.62,4.19-1.3,5.79-2.02,.13,2.46,.92,4.61,2.37,6.45,1.6,2.03,3.47,3.04,5.62,3.04,1.43,0,2.9-.5,4.4-1.5s3.4-2.77,5.69-5.3v1.2c0,1.51,.25,2.82,.75,3.93s1.49,1.66,2.97,1.66c3.15,0,7.49-2.54,13.02-7.62v-6.05c-2.34,2.46-4.38,4.38-6.12,5.78Zm-54.03,11.79c-1.4,1.16-3,1.74-4.81,1.74-.79,0-1.44-.26-1.95-.77s-.77-1.16-.77-1.95c0-1.3,.74-2.37,2.23-3.21,1.81-1.02,5.28-2.16,10.4-3.42-1.63,3.58-3.33,6.12-5.09,7.6Zm4.78-32.93c-1.84-1.53-2.76-3.77-2.76-6.7s.74-5.44,2.23-7.67c1.49-2.23,3.21-3.35,5.16-3.35,1.53,0,2.72,.72,3.56,2.16,.84,1.44,1.26,3.42,1.26,5.93,0,3.81-.6,7.95-1.81,12.42-3.26-.32-5.8-1.26-7.64-2.79Zm39.8,16.23c-1.39,1.62-2.77,3.22-4.16,4.79-2.01,2.1-3.73,3.15-5.16,3.15-1.1,0-1.98-.63-2.65-1.9-.67-1.26-1-2.92-1-4.97,0-3.24,.92-6.16,2.76-8.77,1.84-2.6,3.9-3.9,6.19-3.9,.86,0,1.67,.31,2.43,.93,.53,.43,1.6,1.6,3.22,3.51l-1.62,7.16Z"/></svg>