<?xml version="1.0" encoding="UTF-8"?><svg id="Layer_1" xmlns="http://www.w3.org/2000/svg" xmlns:xlink="http://www.w3.org/1999/xlink" viewBox="0 0 248 100"><defs><style>.cls-1{stroke:#000;stroke-miterlimit:10;stroke-width:.75px;}.cls-2{fill:url(#linear-gradient);}.cls-3{fill:#fff;}</style><linearGradient id="linear-gradient" x1="49.39" y1="-70.82" x2="49.39" y2="58.53" gradientUnits="userSpaceOnUse"><stop offset=".02" stop-color="#fff"/><stop offset=".04" stop-color="#f7f7f7"/><stop offset=".37" stop-color="#8f8f8f"/><stop offset=".63" stop-color="#424242"/><stop offset=".81" stop-color="#121212"/><stop offset=".9" stop-color="#000"/></linearGradient></defs><g><path class="cls-1" d="M107.68,26.17c0-.13-.01-.27-.03-.43-.02-.16-.05-.28-.1-.37-.04-.11-.11-.22-.19-.34s-.15-.19-.19-.21c-.11-.06-.21-.12-.32-.18-.11-.05-.21-.1-.32-.14-.15-.04-.42-.07-.8-.1-.38-.02-.65-.03-.8-.03v-1.02h7.62v1.02c-.15,0-.4,.01-.75,.03-.35,.02-.61,.05-.78,.1-.09,.04-.19,.09-.3,.14-.12,.05-.23,.11-.34,.18-.02,.02-.08,.09-.18,.21-.1,.12-.17,.23-.21,.34-.02,.08-.05,.21-.08,.37-.03,.16-.05,.3-.05,.43v14.5c0,.36-.03,.87-.1,1.52-.06,.65-.16,1.2-.29,1.65-.08,.32-.2,.62-.35,.91-.15,.29-.31,.55-.48,.78-.15,.21-.34,.41-.56,.58-.22,.17-.49,.32-.78,.45-.34,.15-.7,.26-1.09,.32-.38,.06-.66,.1-.83,.1s-.42-.03-.75-.08c-.33-.05-.58-.11-.75-.18-.17-.06-.35-.14-.53-.22-.18-.08-.36-.18-.53-.29-.21-.15-.39-.3-.53-.45-.14-.15-.26-.3-.37-.45-.09-.15-.18-.36-.29-.62-.11-.27-.16-.52-.16-.75,0-.19,.03-.39,.08-.61,.05-.21,.14-.39,.27-.54,.11-.17,.27-.3,.5-.38,.22-.08,.43-.13,.62-.13,.24,0,.46,.04,.69,.13,.22,.09,.39,.21,.5,.38,.13,.11,.22,.23,.27,.38,.05,.15,.08,.3,.08,.45,0,.21-.03,.39-.1,.54s-.13,.27-.19,.35c-.06,.11-.12,.19-.18,.26-.05,.06-.08,.13-.08,.19,0,.15,.06,.29,.19,.42s.25,.22,.35,.29c.15,.08,.33,.15,.54,.19,.21,.04,.41,.06,.58,.06,.11,0,.27-.03,.5-.1,.22-.06,.4-.14,.53-.22,.11-.04,.21-.12,.3-.24,.1-.12,.19-.24,.27-.37,.08-.13,.15-.27,.21-.42,.05-.15,.09-.33,.11-.54,.04-.17,.08-.45,.11-.85,.03-.39,.05-.76,.05-1.1v-15.9Z"/><path class="cls-1" d="M123.17,43.61c0,.13,.02,.28,.05,.45,.03,.17,.06,.3,.08,.38,.04,.11,.11,.21,.21,.32,.1,.11,.15,.18,.18,.22,.11,.06,.22,.12,.34,.16,.12,.04,.22,.09,.3,.13,.17,.02,.43,.05,.78,.08,.35,.03,.6,.05,.75,.05v1.06h-7.55v-1.06c.15,0,.41-.02,.77-.05,.36-.03,.62-.06,.77-.08l.32-.13c.11-.04,.21-.1,.32-.16,.04-.04,.11-.12,.19-.22,.08-.11,.15-.21,.19-.32,.04-.08,.08-.21,.1-.38,.02-.17,.03-.32,.03-.45V26.2c0-.15-.01-.3-.03-.46-.02-.16-.05-.28-.1-.37-.04-.11-.11-.22-.19-.34-.09-.12-.15-.19-.19-.21-.11-.06-.21-.12-.32-.18-.11-.05-.21-.09-.32-.11-.15-.04-.41-.07-.77-.1s-.62-.03-.77-.03v-1.06h7.55v1.06c-.15,0-.4,.01-.75,.03-.35,.02-.61,.05-.78,.1-.08,.02-.19,.06-.3,.11-.12,.05-.23,.11-.34,.18-.02,.02-.08,.09-.18,.21-.1,.12-.17,.23-.21,.34-.02,.08-.05,.21-.08,.37-.03,.16-.05,.31-.05,.46v17.41Z"/><path class="cls-1" d="M136.7,37.85l-1.82,5.82c-.04,.17-.08,.35-.11,.53s-.05,.34-.05,.46c0,.11,.03,.21,.1,.3,.06,.1,.14,.17,.22,.21,.11,.09,.23,.14,.38,.18,.15,.03,.28,.06,.38,.08,.13,.02,.3,.04,.51,.05,.21,.01,.46,.02,.74,.02v.96h-6.34v-.96c.21,0,.42-.01,.61-.03,.19-.02,.35-.04,.48-.06,.15-.04,.3-.1,.46-.18,.16-.07,.29-.15,.4-.24,.11-.11,.2-.22,.29-.34s.17-.25,.26-.4c.06-.11,.13-.23,.19-.38,.06-.15,.13-.31,.19-.48l6.53-20.54h1.47l6.82,20.83c.06,.15,.15,.33,.26,.53,.11,.2,.2,.37,.29,.5,.11,.13,.22,.25,.34,.35,.12,.11,.25,.2,.4,.29,.15,.06,.35,.11,.59,.13,.25,.02,.46,.03,.66,.03v.96h-6.98v-.96c.19,0,.47-.01,.83-.03,.36-.02,.62-.04,.77-.06,.15-.04,.3-.1,.45-.18,.15-.07,.22-.23,.22-.46,0-.13-.02-.29-.06-.48-.04-.19-.1-.39-.16-.61l-1.86-5.82h-7.46Zm3.71-11.71l-3.33,10.59h6.72l-3.39-10.59Z"/><path class="cls-1" d="M159.65,43.61c0,.13,.02,.28,.05,.45,.03,.17,.06,.3,.08,.38,.04,.11,.11,.21,.21,.32,.1,.11,.15,.18,.18,.22,.11,.06,.21,.12,.32,.16,.11,.04,.2,.09,.29,.13,.17,.02,.42,.05,.74,.08,.32,.03,.55,.05,.7,.05v1.06h-6.46v-1.06c.15,0,.39-.02,.72-.05,.33-.03,.57-.06,.72-.08l.32-.13c.11-.04,.2-.1,.29-.16,.04-.04,.11-.12,.19-.22,.08-.11,.15-.21,.19-.32,.04-.08,.07-.21,.1-.38,.02-.17,.03-.32,.03-.45V26.2c0-.15-.01-.3-.03-.46-.02-.16-.05-.28-.1-.37-.04-.11-.11-.22-.19-.34-.09-.12-.15-.19-.19-.21-.08-.06-.18-.12-.29-.18-.11-.05-.21-.09-.32-.11-.15-.04-.39-.07-.72-.1-.33-.02-.57-.03-.72-.03v-1.06h4.61l12.29,18.78v-15.94c0-.15-.01-.3-.03-.46-.02-.16-.05-.28-.1-.37-.04-.11-.11-.22-.19-.34-.09-.12-.15-.19-.19-.21-.08-.06-.18-.12-.29-.18-.11-.05-.21-.09-.32-.11-.15-.04-.39-.07-.72-.1-.33-.02-.57-.03-.72-.03v-1.06h6.46v1.06c-.15,0-.38,.01-.7,.03-.32,.02-.57,.05-.74,.1-.09,.02-.18,.06-.29,.11-.11,.05-.21,.11-.32,.18-.02,.02-.08,.09-.18,.21s-.17,.23-.21,.34c-.02,.08-.05,.21-.08,.37-.03,.16-.05,.31-.05,.46v20.26h-1.44l-12.9-20.48v17.63Z"/><path class="cls-1" d="M186.49,23.28c-.02,.37-.08,.73-.19,1.07-.09,.3-.2,.61-.35,.93-.15,.32-.31,.6-.48,.83-.15,.21-.32,.44-.51,.67-.19,.23-.4,.45-.61,.64-.17,.15-.37,.32-.59,.51-.22,.19-.43,.35-.62,.48-.15,.08-.28,.08-.38-.03-.11-.11-.12-.22-.03-.35,.15-.17,.32-.38,.51-.62s.35-.45,.48-.62,.27-.39,.43-.67c.16-.28,.28-.51,.37-.7,.11-.24,.19-.49,.24-.77,.05-.28,.08-.49,.08-.64,0-.08-.02-.15-.05-.21-.03-.05-.08-.09-.14-.11-.04-.02-.12-.04-.22-.05-.11-.01-.21-.02-.32-.02-.21-.02-.41-.08-.59-.19-.18-.11-.33-.21-.43-.32-.13-.15-.23-.33-.32-.53-.09-.2-.13-.44-.13-.72,0-.23,.05-.47,.16-.7,.11-.23,.23-.43,.38-.58,.21-.19,.44-.33,.67-.42,.23-.08,.46-.13,.67-.13,.26,0,.51,.05,.75,.14,.25,.1,.45,.25,.62,.46,.17,.19,.32,.43,.45,.72,.13,.29,.19,.6,.19,.94,0,.28-.01,.6-.03,.98Z"/><path class="cls-1" d="M204.83,35.04l-.93,.29c-.21-.41-.46-.79-.74-1.17s-.53-.71-.77-1.01c-.15-.28-.38-.56-.69-.85s-.57-.51-.78-.66c-.28-.17-.62-.32-1.02-.45-.41-.13-.76-.19-1.06-.19s-.62,.06-.98,.19c-.35,.13-.65,.29-.88,.48-.13,.11-.28,.27-.45,.48s-.31,.43-.42,.64c-.08,.19-.16,.42-.21,.67-.05,.26-.08,.47-.08,.64,0,.34,.06,.64,.19,.88s.26,.45,.38,.62c.15,.15,.36,.33,.64,.53,.28,.2,.53,.36,.77,.46,.38,.15,.78,.3,1.2,.45,.42,.15,.79,.28,1.14,.38,.34,.13,.71,.27,1.12,.42,.4,.15,.77,.31,1.09,.48,.38,.21,.74,.42,1.06,.61,.32,.19,.59,.44,.8,.74,.28,.34,.48,.77,.61,1.28s.19,.96,.19,1.34c0,.34-.08,.77-.22,1.3-.15,.52-.33,.93-.54,1.23-.23,.34-.51,.63-.83,.88-.32,.25-.63,.45-.93,.62-.34,.21-.77,.36-1.28,.45-.51,.08-1.01,.13-1.5,.13-.34,0-.73-.05-1.17-.16-.44-.11-.79-.21-1.07-.32-.23-.11-.45-.19-.64-.26s-.33-.1-.42-.1c-.04,0-.25,.12-.62,.35s-.61,.38-.72,.45l-1.79-5.57,.93-.32c.3,.6,.74,1.31,1.33,2.14,.59,.83,1.08,1.4,1.49,1.7,.32,.21,.74,.43,1.25,.64,.51,.21,.96,.32,1.34,.32,.3,0,.62-.02,.98-.06,.35-.04,.61-.11,.78-.19,.19-.11,.38-.24,.56-.4,.18-.16,.36-.36,.53-.59,.17-.26,.3-.58,.38-.96s.13-.68,.13-.9c0-.23-.05-.48-.14-.75-.1-.27-.21-.51-.34-.72-.11-.21-.27-.42-.48-.61-.21-.19-.46-.36-.74-.51-.21-.11-.52-.24-.91-.4-.4-.16-.71-.28-.94-.37-.34-.15-.72-.3-1.14-.45s-.81-.3-1.17-.45c-.34-.15-.73-.34-1.15-.58-.43-.23-.8-.52-1.12-.86-.32-.3-.56-.67-.72-1.1-.16-.44-.24-.85-.24-1.23,0-.36,.03-.71,.1-1.06,.06-.34,.17-.66,.32-.96,.13-.28,.26-.52,.4-.72,.14-.2,.38-.44,.72-.72,.21-.19,.45-.36,.72-.5s.55-.26,.85-.37c.26-.11,.58-.19,.98-.24,.39-.05,.68-.08,.85-.08,.4,0,.8,.04,1.2,.13,.39,.09,.73,.21,1.01,.38,.26,.13,.54,.28,.86,.45,.11-.04,.28-.13,.53-.27s.51-.36,.78-.66l1.63,4.99Z"/><path class="cls-1" d="M111.23,56.36c.34,0,.82,.03,1.42,.1,.61,.06,1.11,.15,1.52,.26,.43,.11,.87,.26,1.33,.46,.46,.2,.82,.4,1.07,.59,.3,.21,.6,.48,.91,.8,.31,.32,.54,.66,.69,1.02,.17,.34,.31,.79,.42,1.34,.11,.56,.16,1.11,.16,1.66s-.05,1.08-.14,1.63c-.1,.56-.23,1.01-.4,1.38-.17,.41-.38,.75-.64,1.04-.26,.29-.53,.55-.83,.78-.28,.21-.59,.41-.94,.59-.35,.18-.76,.33-1.23,.43-.43,.11-1,.2-1.73,.27-.73,.08-1.26,.11-1.6,.11h-4.06v7.78c0,.13,.02,.28,.05,.45,.03,.17,.06,.3,.08,.38,.04,.11,.11,.21,.21,.32,.1,.11,.15,.18,.18,.22,.11,.06,.22,.12,.34,.16,.12,.04,.22,.09,.3,.13,.17,.02,.41,.05,.72,.08,.31,.03,.54,.05,.69,.05v1.06h-7.3v-1.06c.15,0,.38-.02,.7-.05,.32-.03,.55-.06,.7-.08,.11-.04,.21-.09,.32-.13,.11-.04,.21-.1,.32-.16,.04-.04,.11-.12,.19-.22,.08-.11,.15-.21,.19-.32,.04-.08,.07-.21,.1-.38,.02-.17,.03-.32,.03-.45v-17.41c0-.15-.01-.3-.03-.46-.02-.16-.05-.28-.1-.37-.04-.11-.11-.22-.19-.34-.09-.12-.15-.19-.19-.21-.11-.06-.21-.12-.32-.18-.11-.05-.21-.09-.32-.11-.15-.04-.38-.07-.7-.1s-.55-.03-.7-.03v-1.06h8.8Zm-.64,11.42c.45,0,.91-.03,1.39-.08,.48-.05,.92-.13,1.33-.24,.3-.08,.61-.23,.93-.43,.32-.2,.56-.38,.74-.53,.15-.15,.33-.37,.54-.66s.37-.56,.48-.82c.11-.26,.21-.62,.3-1.1,.1-.48,.14-.92,.14-1.33,0-.43-.05-.87-.16-1.34-.11-.47-.21-.84-.32-1.12-.11-.23-.27-.5-.5-.78-.22-.29-.42-.52-.59-.69s-.44-.35-.8-.53c-.36-.18-.69-.31-.99-.4-.34-.11-.78-.19-1.33-.24-.54-.05-1.04-.08-1.49-.08h-.7c-.15,0-.35,.01-.61,.03s-.47,.05-.64,.1c-.08,.02-.19,.06-.3,.11-.12,.05-.23,.11-.34,.18-.02,.02-.08,.09-.18,.21s-.17,.23-.21,.34c-.02,.08-.05,.21-.08,.37-.03,.16-.05,.31-.05,.46v8.58h3.42Z"/><path class="cls-1" d="M123.98,69.76c.1-.62,.22-1.16,.37-1.63,.13-.43,.29-.87,.5-1.34,.2-.47,.44-.9,.72-1.28,.21-.28,.5-.56,.85-.86,.35-.3,.74-.59,1.17-.86,.36-.19,.86-.37,1.49-.53s1.2-.24,1.71-.24,1.08,.08,1.7,.24,1.1,.34,1.44,.53c.45,.26,.85,.54,1.22,.85,.36,.31,.65,.6,.86,.88,.28,.38,.52,.81,.72,1.28,.2,.47,.37,.92,.5,1.34,.15,.47,.27,1.01,.37,1.63,.1,.62,.14,1.18,.14,1.7s-.05,1.08-.14,1.7c-.1,.62-.22,1.16-.37,1.63-.13,.41-.29,.85-.5,1.33-.2,.48-.44,.91-.72,1.3-.21,.28-.5,.57-.86,.88-.36,.31-.77,.59-1.22,.85-.34,.19-.82,.37-1.44,.53s-1.18,.24-1.7,.24-1.08-.08-1.7-.24c-.62-.16-1.1-.34-1.44-.53-.45-.26-.85-.54-1.22-.85-.36-.31-.65-.6-.86-.88-.28-.38-.52-.82-.72-1.3-.2-.48-.37-.92-.5-1.33-.15-.47-.27-1.01-.37-1.63-.1-.62-.14-1.18-.14-1.7s.05-1.08,.14-1.7Zm2.18,3.04c.05,.53,.12,.99,.21,1.38,.06,.28,.18,.66,.35,1.15,.17,.49,.34,.88,.51,1.15,.17,.26,.38,.55,.64,.9,.26,.34,.5,.6,.74,.77,.26,.17,.59,.34,1.01,.5,.42,.16,.81,.24,1.17,.24s.75-.08,1.17-.24c.42-.16,.75-.32,1.01-.5,.23-.17,.48-.43,.75-.77,.27-.34,.47-.64,.62-.9,.17-.28,.34-.66,.51-1.15,.17-.49,.29-.88,.35-1.15,.08-.38,.16-.84,.21-1.38,.05-.53,.08-.98,.08-1.34s-.03-.81-.08-1.34c-.05-.53-.12-.99-.21-1.38-.06-.28-.18-.66-.35-1.15-.17-.49-.34-.87-.51-1.15-.15-.26-.36-.55-.62-.9-.27-.34-.52-.6-.75-.77-.26-.17-.59-.34-1.01-.5-.42-.16-.8-.24-1.17-.24s-.75,.08-1.17,.24c-.42,.16-.75,.33-1.01,.5-.23,.17-.48,.43-.74,.77-.26,.34-.47,.64-.64,.9-.17,.28-.34,.66-.51,1.15-.17,.49-.29,.88-.35,1.15-.08,.38-.15,.84-.21,1.38-.05,.53-.08,.98-.08,1.34s.03,.81,.08,1.34Z"/><path class="cls-1" d="M147.31,66.4c.05-.11,.11-.21,.18-.32,.23-.41,.48-.77,.74-1.1,.26-.33,.52-.6,.8-.82,.17-.17,.37-.34,.61-.5,.23-.16,.48-.28,.74-.37,.17-.08,.41-.15,.7-.21,.3-.05,.53-.08,.7-.08,.23,0,.52,.05,.86,.14,.34,.1,.63,.25,.86,.46,.23,.19,.4,.4,.51,.62,.11,.22,.16,.45,.16,.69,0,.15-.03,.33-.1,.53-.06,.2-.15,.37-.26,.5s-.26,.22-.46,.29c-.2,.06-.39,.1-.56,.1-.24,0-.45-.06-.64-.18-.19-.12-.37-.27-.54-.46-.08-.11-.18-.21-.27-.32-.1-.11-.18-.19-.24-.26-.09-.06-.18-.12-.29-.18-.11-.05-.2-.08-.29-.08s-.19,.03-.3,.08c-.12,.05-.22,.1-.3,.14-.11,.06-.25,.17-.42,.3-.17,.14-.32,.28-.45,.43-.15,.15-.33,.39-.53,.72-.2,.33-.41,.69-.62,1.07-.15,.28-.29,.55-.43,.82-.14,.27-.27,.56-.4,.88v7.33c0,.13,.02,.28,.05,.45,.03,.17,.06,.3,.08,.38,.04,.11,.11,.21,.21,.32,.1,.11,.15,.18,.18,.22,.11,.06,.21,.12,.32,.16,.11,.04,.21,.09,.32,.13,.17,.02,.41,.05,.72,.08s.54,.05,.69,.05v.96h-7.23v-.96c.15,0,.38-.02,.7-.05s.55-.06,.7-.08c.11-.04,.21-.08,.32-.13,.11-.04,.21-.1,.32-.16,.04-.04,.11-.12,.19-.22,.08-.11,.15-.21,.19-.32,.04-.08,.08-.21,.1-.38,.02-.17,.03-.32,.03-.45v-10.11c0-.17-.03-.34-.1-.51-.06-.17-.14-.31-.22-.42-.11-.11-.25-.2-.42-.27-.17-.07-.37-.11-.61-.11h-.96v-.9c.36,0,.77-.04,1.22-.13,.45-.08,.84-.2,1.18-.35,.23-.11,.47-.23,.72-.38s.45-.3,.62-.45h.67v3.78c.11-.15,.19-.28,.24-.38Z"/><path class="cls-1" d="M163.26,56.96v6.5h4.29v.99h-4.29v11.74c0,.17,.02,.38,.05,.64,.03,.26,.07,.46,.11,.61,.04,.13,.13,.28,.26,.46,.13,.18,.24,.29,.32,.34,.17,.08,.31,.15,.43,.21,.12,.05,.26,.08,.43,.08,.13,0,.3-.04,.51-.11,.21-.07,.39-.15,.54-.24,.17-.11,.33-.21,.48-.3,.15-.1,.3-.22,.45-.37,.15-.17,.29-.34,.43-.51s.28-.36,.43-.58l.83,.54c-.17,.32-.35,.62-.54,.9-.19,.28-.41,.51-.64,.7-.19,.19-.4,.38-.62,.58-.22,.19-.49,.34-.78,.45-.28,.13-.59,.22-.94,.29-.35,.06-.63,.1-.85,.1-.15,0-.33-.02-.54-.05-.21-.03-.41-.08-.58-.14-.17-.04-.35-.12-.53-.22-.18-.11-.33-.21-.43-.32-.19-.17-.33-.32-.42-.45s-.17-.3-.26-.51c-.09-.17-.15-.43-.19-.77-.04-.34-.06-.65-.06-.93v-12.13h-3.2v-.99c.36,0,.77-.04,1.23-.13,.46-.08,.79-.18,1.01-.29,.26-.17,.48-.4,.69-.69,.2-.29,.37-.58,.5-.88,.11-.28,.2-.59,.29-.94,.08-.35,.15-.7,.19-1.04,.04-.32,.08-.74,.13-1.25,.04-.51,.07-.94,.1-1.28h1.18Z"/><path class="cls-1" d="M175.29,62.92c0-.43,.03-.88,.08-1.38,.05-.49,.12-.91,.21-1.25,.08-.32,.19-.66,.3-1.02,.12-.36,.27-.71,.46-1.06,.19-.36,.42-.69,.67-.99,.26-.3,.59-.58,.99-.83,.23-.17,.52-.3,.86-.38,.34-.08,.65-.13,.93-.13,.34,0,.71,.05,1.1,.16s.71,.27,.94,.48c.26,.21,.44,.44,.56,.69,.12,.25,.18,.52,.18,.82,0,.41-.13,.72-.4,.94s-.55,.34-.85,.34c-.17,0-.33-.02-.48-.06s-.26-.1-.32-.16c-.15-.11-.26-.23-.34-.37-.08-.14-.13-.29-.18-.46-.02-.15-.06-.3-.11-.45-.05-.15-.1-.27-.14-.35-.08-.13-.18-.23-.27-.3-.1-.07-.19-.11-.27-.11-.02,0-.1,.04-.22,.11-.13,.08-.25,.16-.35,.24-.04,.04-.12,.13-.24,.27-.12,.14-.23,.29-.34,.46-.11,.19-.21,.43-.3,.7-.1,.28-.17,.52-.21,.74-.04,.24-.08,.52-.11,.86-.03,.34-.05,.63-.05,.86v2.21h4.16v1.06h-4.16v12.19c0,.13,.02,.27,.05,.43,.03,.16,.06,.28,.08,.37,.04,.11,.11,.21,.21,.32,.1,.11,.16,.18,.18,.22,.11,.06,.21,.12,.32,.18,.11,.05,.21,.1,.32,.14,.17,.02,.41,.05,.72,.08,.31,.03,.54,.05,.69,.05v.93h-7.23v-.93c.15,0,.38-.02,.7-.05,.32-.03,.55-.06,.7-.08,.11-.04,.21-.09,.32-.14,.11-.05,.21-.11,.32-.18,.04-.04,.11-.12,.19-.22,.08-.11,.15-.21,.19-.32,.04-.08,.07-.21,.1-.37,.02-.16,.03-.3,.03-.43v-12.19h-3.14v-1.06h3.14v-.58Z"/><path class="cls-1" d="M187.09,69.76c.1-.62,.22-1.16,.37-1.63,.13-.43,.29-.87,.5-1.34,.2-.47,.44-.9,.72-1.28,.21-.28,.5-.56,.85-.86,.35-.3,.74-.59,1.17-.86,.36-.19,.86-.37,1.49-.53s1.2-.24,1.71-.24,1.08,.08,1.7,.24,1.1,.34,1.44,.53c.45,.26,.85,.54,1.22,.85,.36,.31,.65,.6,.86,.88,.28,.38,.52,.81,.72,1.28,.2,.47,.37,.92,.5,1.34,.15,.47,.27,1.01,.37,1.63,.1,.62,.14,1.18,.14,1.7s-.05,1.08-.14,1.7c-.1,.62-.22,1.16-.37,1.63-.13,.41-.29,.85-.5,1.33-.2,.48-.44,.91-.72,1.3-.21,.28-.5,.57-.86,.88-.36,.31-.77,.59-1.22,.85-.34,.19-.82,.37-1.44,.53s-1.18,.24-1.7,.24-1.08-.08-1.7-.24c-.62-.16-1.1-.34-1.44-.53-.45-.26-.85-.54-1.22-.85-.36-.31-.65-.6-.86-.88-.28-.38-.52-.82-.72-1.3-.2-.48-.37-.92-.5-1.33-.15-.47-.27-1.01-.37-1.63-.1-.62-.14-1.18-.14-1.7s.05-1.08,.14-1.7Zm2.18,3.04c.05,.53,.12,.99,.21,1.38,.06,.28,.18,.66,.35,1.15,.17,.49,.34,.88,.51,1.15,.17,.26,.38,.55,.64,.9,.26,.34,.5,.6,.74,.77,.26,.17,.59,.34,1.01,.5,.42,.16,.81,.24,1.17,.24s.75-.08,1.17-.24c.42-.16,.75-.32,1.01-.5,.23-.17,.48-.43,.75-.77,.27-.34,.47-.64,.62-.9,.17-.28,.34-.66,.51-1.15,.17-.49,.29-.88,.35-1.15,.08-.38,.16-.84,.21-1.38,.05-.53,.08-.98,.08-1.34s-.03-.81-.08-1.34c-.05-.53-.12-.99-.21-1.38-.06-.28-.18-.66-.35-1.15-.17-.49-.34-.87-.51-1.15-.15-.26-.36-.55-.62-.9-.27-.34-.52-.6-.75-.77-.26-.17-.59-.34-1.01-.5-.42-.16-.8-.24-1.17-.24s-.75,.08-1.17,.24c-.42,.16-.75,.33-1.01,.5-.23,.17-.48,.43-.74,.77-.26,.34-.47,.64-.64,.9-.17,.28-.34,.66-.51,1.15-.17,.49-.29,.88-.35,1.15-.08,.38-.15,.84-.21,1.38-.05,.53-.08,.98-.08,1.34s.03,.81,.08,1.34Z"/><path class="cls-1" d="M210.49,76.74c0,.13,.02,.27,.05,.43s.06,.28,.08,.37c.04,.11,.11,.21,.21,.32,.1,.11,.15,.18,.18,.22,.11,.06,.21,.12,.32,.18,.11,.05,.21,.1,.32,.14,.17,.02,.41,.05,.72,.08,.31,.03,.54,.05,.69,.05v.93h-7.23v-.93c.15,0,.38-.02,.7-.05,.32-.03,.55-.06,.7-.08,.11-.04,.21-.09,.32-.14,.11-.05,.21-.11,.32-.18,.04-.04,.11-.12,.19-.22,.09-.11,.15-.21,.19-.32,.04-.08,.07-.21,.1-.37s.03-.3,.03-.43v-17.38c0-.17-.03-.35-.1-.53-.06-.18-.14-.33-.22-.43-.11-.11-.25-.19-.42-.26-.17-.06-.37-.1-.61-.1h-.96v-.9c.36,0,.77-.05,1.22-.14s.84-.21,1.18-.34c.24-.11,.47-.23,.72-.38,.25-.15,.45-.3,.62-.45h.67v20.9Z"/><path class="cls-1" d="M220.41,66.6c0-.17-.03-.34-.1-.51-.06-.17-.14-.31-.22-.42-.11-.11-.25-.19-.42-.26-.17-.06-.37-.1-.61-.1h-.96v-.93c.36,0,.77-.04,1.22-.13,.45-.08,.84-.19,1.18-.32,.24-.11,.47-.24,.72-.4,.25-.16,.45-.31,.62-.46h.67v13.66c0,.13,.02,.27,.05,.43s.06,.28,.08,.37c.04,.11,.11,.21,.21,.32,.1,.11,.15,.18,.18,.22,.11,.06,.21,.12,.32,.18,.11,.05,.21,.1,.32,.14,.17,.02,.41,.05,.72,.08,.31,.03,.54,.05,.69,.05v.93h-7.23v-.93c.15,0,.38-.02,.7-.05,.32-.03,.55-.06,.7-.08,.11-.04,.21-.09,.32-.14,.11-.05,.21-.11,.32-.18,.04-.04,.11-.12,.19-.22,.09-.11,.15-.21,.19-.32,.04-.08,.07-.21,.1-.37s.03-.3,.03-.43v-10.14Zm2.1-7.78c-.33,.34-.75,.51-1.26,.51s-.97-.17-1.3-.51c-.33-.34-.5-.76-.5-1.25s.17-.9,.5-1.23,.76-.5,1.3-.5,.93,.17,1.26,.5,.5,.74,.5,1.23-.17,.91-.5,1.25Z"/><path class="cls-1" d="M230.16,69.76c.1-.62,.22-1.16,.37-1.63,.13-.43,.29-.87,.5-1.34,.2-.47,.44-.9,.72-1.28,.21-.28,.5-.56,.85-.86,.35-.3,.74-.59,1.17-.86,.36-.19,.86-.37,1.49-.53s1.2-.24,1.71-.24,1.08,.08,1.7,.24,1.1,.34,1.44,.53c.45,.26,.85,.54,1.22,.85,.36,.31,.65,.6,.86,.88,.28,.38,.52,.81,.72,1.28,.2,.47,.37,.92,.5,1.34,.15,.47,.27,1.01,.37,1.63,.1,.62,.14,1.18,.14,1.7s-.05,1.08-.14,1.7c-.1,.62-.22,1.16-.37,1.63-.13,.41-.29,.85-.5,1.33-.2,.48-.44,.91-.72,1.3-.21,.28-.5,.57-.86,.88-.36,.31-.77,.59-1.22,.85-.34,.19-.82,.37-1.44,.53s-1.18,.24-1.7,.24-1.08-.08-1.7-.24c-.62-.16-1.1-.34-1.44-.53-.45-.26-.85-.54-1.22-.85-.36-.31-.65-.6-.86-.88-.28-.38-.52-.82-.72-1.3-.2-.48-.37-.92-.5-1.33-.15-.47-.27-1.01-.37-1.63-.1-.62-.14-1.18-.14-1.7s.05-1.08,.14-1.7Zm2.18,3.04c.05,.53,.12,.99,.21,1.38,.06,.28,.18,.66,.35,1.15,.17,.49,.34,.88,.51,1.15,.17,.26,.38,.55,.64,.9,.26,.34,.5,.6,.74,.77,.26,.17,.59,.34,1.01,.5,.42,.16,.81,.24,1.17,.24s.75-.08,1.17-.24c.42-.16,.75-.32,1.01-.5,.23-.17,.48-.43,.75-.77,.27-.34,.47-.64,.62-.9,.17-.28,.34-.66,.51-1.15,.17-.49,.29-.88,.35-1.15,.08-.38,.16-.84,.21-1.38,.05-.53,.08-.98,.08-1.34s-.03-.81-.08-1.34c-.05-.53-.12-.99-.21-1.38-.06-.28-.18-.66-.35-1.15-.17-.49-.34-.87-.51-1.15-.15-.26-.36-.55-.62-.9-.27-.34-.52-.6-.75-.77-.26-.17-.59-.34-1.01-.5-.42-.16-.8-.24-1.17-.24s-.75,.08-1.17,.24c-.42,.16-.75,.33-1.01,.5-.23,.17-.48,.43-.74,.77-.26,.34-.47,.64-.64,.9-.17,.28-.34,.66-.51,1.15-.17,.49-.29,.88-.35,1.15-.08,.38-.15,.84-.21,1.38-.05,.53-.08,.98-.08,1.34s.03,.81,.08,1.34Z"/></g><g><rect class="cls-2" x="4.1" y="4.71" width="90.58" height="90.58" rx="18.2" ry="18.2"/><path class="cls-3" d="M79.25,59.63c-1.74,1.4-2.99,2.09-3.76,2.09-.57,0-.86-.45-.86-1.35,0-.52,.12-1.45,.36-2.8,.24-1.35,.52-2.61,.86-3.79l3.72-15.1h-5.94l-1.22,4.51c-1.05-1.57-2.16-2.72-3.33-3.43-1.17-.72-2.47-1.07-3.9-1.07-3.53,0-6.8,1.74-9.8,5.22-2.13,2.48-3.55,5.26-4.28,8.33-1.48,.92-3.29,1.81-5.45,2.66-2.42,.93-4.67,1.63-6.77,2.09,.19-.6,.72-2.23,1.6-4.88,.88-2.65,1.51-4.65,1.88-6,1.81,0,3.06-.23,3.73-.7,.67-.46,1.01-1.63,1.01-3.49,0-.28-.21-.42-.63-.42l-3,.21c.93-4.65,1.4-8.56,1.4-11.72,0-4.37-.88-7.84-2.65-10.4-1.77-2.56-4.14-3.84-7.12-3.84-3.54,0-6.63,1.67-9.28,5.02s-3.98,7.21-3.98,11.58,1.49,7.56,4.47,9.84c2.47,1.91,5.93,3.09,10.4,3.56-1.02,3.86-2.42,8.14-4.19,12.84-7.63,1.95-12.61,3.58-14.93,4.88-2.98,1.63-4.47,3.95-4.47,6.98,0,2.09,.65,3.79,1.95,5.09s2.98,1.95,5.02,1.95c4.42,0,8.4-2.19,11.93-6.56,2.14-2.61,3.88-5.65,5.23-9.14,.88-.23,3.37-.81,7.47-1.74,2.26-.62,4.19-1.3,5.79-2.02,.13,2.46,.92,4.61,2.37,6.45,1.6,2.03,3.47,3.04,5.62,3.04,1.43,0,2.9-.5,4.4-1.5s3.4-2.77,5.69-5.3v1.2c0,1.51,.25,2.82,.75,3.93s1.49,1.66,2.97,1.66c3.15,0,7.49-2.54,13.02-7.62v-6.05c-2.34,2.46-4.38,4.38-6.12,5.78Zm-54.03,11.79c-1.4,1.16-3,1.74-4.81,1.74-.79,0-1.44-.26-1.95-.77s-.77-1.16-.77-1.95c0-1.3,.74-2.37,2.23-3.21,1.81-1.02,5.28-2.16,10.4-3.42-1.63,3.58-3.33,6.12-5.09,7.6Zm4.78-32.93c-1.84-1.53-2.76-3.77-2.76-6.7s.74-5.44,2.23-7.67c1.49-2.23,3.21-3.35,5.16-3.35,1.53,0,2.72,.72,3.56,2.16,.84,1.44,1.26,3.42,1.26,5.93,0,3.81-.6,7.95-1.81,12.42-3.26-.32-5.8-1.26-7.64-2.79Zm39.8,16.23c-1.39,1.62-2.77,3.22-4.16,4.79-2.01,2.1-3.73,3.15-5.16,3.15-1.1,0-1.98-.63-2.65-1.9-.67-1.26-1-2.92-1-4.97,0-3.24,.92-6.16,2.76-8.77,1.84-2.6,3.9-3.9,6.19-3.9,.86,0,1.67,.31,2.43,.93,.53,.43,1.6,1.6,3.22,3.51l-1.62,7.16Z"/></g></svg>