<?xml version="1.0" encoding="UTF-8"?><svg id="Layer_1" xmlns="http://www.w3.org/2000/svg" viewBox="0 0 192 58"><defs><style>.cls-1{fill:#fff;}</style></defs><g><g><rect x=".69" y=".83" width="56.34" height="56.34" rx="18.2" ry="18.2"/><path class="cls-1" d="M57.69,38.27v4.03c-1.33,.95-3.32,1.78-5.97,2.51-2.78,.63-4.47,1.03-5.07,1.18-.92,2.37-2.1,4.44-3.55,6.21-2.4,2.97-5.1,4.45-8.1,4.45-1.39,0-2.53-.44-3.41-1.33s-1.33-2.04-1.33-3.46c0-2.05,1.01-3.63,3.03-4.74,1.58-.88,4.96-1.99,10.14-3.32,1.2-3.19,2.15-6.1,2.84-8.72-3.03-.32-5.39-1.12-7.06-2.42-2.02-1.55-3.03-3.77-3.03-6.68s.9-5.59,2.7-7.86c1.8-2.27,3.9-3.41,6.3-3.41,2.02,0,3.63,.87,4.83,2.61,1.2,1.74,1.8,4.09,1.8,7.06,0,2.15-.32,4.8-.95,7.96l2.04-.14c.28,0,.43,.1,.43,.28,0,1.26-.23,2.05-.69,2.37-.46,.32-1.3,.47-2.53,.47-.25,.92-.68,2.27-1.28,4.07-.6,1.8-.96,2.91-1.09,3.32,1.42-.32,2.95-.79,4.6-1.42,2.4-.95,4.18-1.96,5.35-3.03Zm-15.78,9.1c-3.47,.85-5.83,1.63-7.06,2.32-1.01,.57-1.52,1.29-1.52,2.18,0,.54,.17,.98,.52,1.33,.35,.35,.79,.52,1.33,.52,1.23,0,2.32-.4,3.27-1.19,1.2-1.01,2.35-2.73,3.46-5.16Zm4.97-15.3c.82-3.03,1.23-5.84,1.23-8.43,0-1.71-.28-3.05-.85-4.03-.57-.98-1.37-1.47-2.42-1.47-1.33,0-2.5,.76-3.51,2.27-1.01,1.52-1.52,3.25-1.52,5.21s.62,3.51,1.87,4.55c1.25,1.04,2.98,1.67,5.19,1.9Z"/></g><g><path d="M88,32.98c.46-.08,.83-.14,1.1-.16,.34-.04,.75-.07,1.23-.1,.48-.02,.9-.03,1.26-.03s.73,.02,1.1,.06c.37,.04,.71,.1,1.01,.16,.34,.09,.7,.19,1.07,.3,.37,.12,.69,.24,.94,.37,.3,.15,.59,.32,.88,.51,.29,.19,.54,.41,.75,.64,.23,.26,.46,.55,.67,.9,.21,.34,.38,.68,.51,1.02,.17,.41,.29,.85,.37,1.34,.07,.49,.11,.95,.11,1.38s-.04,.84-.11,1.31c-.08,.47-.17,.88-.27,1.22-.15,.45-.32,.86-.51,1.23-.19,.37-.41,.7-.64,.98-.23,.3-.54,.6-.91,.91-.37,.31-.73,.55-1.07,.72-.34,.19-.7,.35-1.07,.46-.37,.12-.71,.22-1.01,.3-.32,.08-.7,.15-1.14,.21-.44,.05-.83,.08-1.17,.08-.49,0-1-.03-1.52-.08-.52-.05-.9-.11-1.14-.18v9.98h-1.6v-23.36c.3-.04,.68-.11,1.14-.19Zm1.76,12.24c.54,.07,1.04,.11,1.49,.11,.38,0,.76-.03,1.14-.08,.37-.05,.73-.14,1.07-.27,.36-.13,.7-.29,1.02-.48,.32-.19,.62-.39,.9-.61,.32-.26,.6-.54,.83-.85,.23-.31,.44-.66,.61-1.04,.17-.36,.3-.75,.4-1.17s.14-.85,.14-1.3c0-.36-.04-.74-.11-1.14-.08-.39-.18-.76-.3-1.1-.08-.26-.22-.53-.42-.83-.19-.3-.38-.55-.58-.77-.15-.17-.34-.34-.58-.5-.24-.16-.45-.28-.64-.37-.21-.11-.45-.2-.7-.27-.26-.08-.51-.14-.77-.21-.21-.04-.48-.08-.8-.13s-.63-.06-.93-.06c-.28,0-.59,0-.93,.02s-.63,.04-.86,.08c-.17,.02-.38,.05-.64,.08-.26,.03-.47,.07-.64,.11v10.53c.32,.08,.75,.17,1.3,.24Z"/><path d="M107.92,56.73c-.3-.04-.6-.11-.9-.19-.32-.11-.63-.23-.94-.37-.31-.14-.61-.3-.91-.5-.28-.17-.54-.37-.8-.61s-.48-.46-.67-.67c-.19-.24-.37-.5-.54-.8-.17-.3-.34-.62-.51-.96-.15-.34-.28-.68-.4-1.02s-.22-.69-.3-1.06c-.09-.43-.16-.85-.21-1.26-.05-.42-.08-.82-.08-1.2,0-.43,.03-.88,.1-1.38,.06-.49,.14-.92,.22-1.28,.08-.32,.19-.67,.32-1.06s.27-.75,.42-1.09c.15-.32,.34-.65,.56-.99,.22-.34,.44-.64,.66-.9,.21-.23,.46-.47,.74-.7s.55-.43,.83-.58c.23-.15,.5-.28,.78-.4,.29-.12,.57-.22,.85-.3,.21-.06,.52-.13,.91-.19,.39-.06,.71-.1,.94-.1,.34,0,.73,.04,1.17,.13,.44,.09,.77,.17,1.01,.26,.28,.09,.56,.2,.85,.35s.54,.3,.75,.45c.23,.15,.48,.34,.74,.56s.47,.45,.64,.69c.23,.3,.43,.58,.58,.83,.15,.26,.28,.51,.38,.77,.17,.36,.31,.73,.43,1.1,.12,.37,.21,.71,.27,1.01,.08,.34,.16,.76,.22,1.26,.06,.5,.1,.93,.1,1.3,0,.64-.04,1.23-.11,1.76-.08,.53-.19,1.05-.34,1.54-.08,.32-.19,.65-.32,.99-.13,.34-.27,.65-.42,.93-.15,.28-.33,.56-.53,.83-.2,.28-.39,.5-.56,.67-.15,.15-.35,.33-.59,.53-.25,.2-.45,.37-.62,.5-.21,.15-.47,.3-.78,.46s-.61,.29-.91,.4c-.34,.11-.71,.19-1.12,.26-.41,.06-.75,.1-1.02,.1s-.57-.02-.86-.06Zm1.78-1.42c.29-.05,.56-.12,.82-.21,.24-.11,.48-.23,.74-.37s.49-.28,.7-.43c.19-.15,.38-.33,.58-.53,.19-.2,.35-.39,.48-.56,.13-.17,.26-.37,.38-.61,.13-.24,.24-.48,.35-.74,.11-.28,.2-.57,.29-.86,.08-.3,.17-.6,.26-.9,.08-.38,.15-.76,.19-1.14,.04-.37,.06-.73,.06-1.07,0-.32-.02-.65-.06-.99-.04-.34-.1-.68-.16-1.02-.04-.26-.11-.53-.19-.83-.08-.3-.17-.56-.26-.8-.08-.23-.2-.48-.34-.74-.14-.26-.26-.47-.37-.64-.15-.23-.31-.45-.5-.64-.18-.19-.38-.37-.59-.54-.17-.15-.39-.3-.67-.45s-.52-.27-.74-.35c-.17-.08-.42-.17-.74-.24-.32-.08-.65-.11-.99-.11-.28,0-.6,.03-.96,.1-.36,.06-.63,.14-.8,.22-.24,.11-.46,.22-.69,.34s-.42,.24-.59,.37c-.19,.15-.37,.31-.53,.48-.16,.17-.31,.34-.46,.51-.13,.15-.27,.36-.43,.62-.16,.27-.29,.52-.4,.75-.11,.28-.22,.6-.34,.96-.12,.36-.21,.67-.27,.93-.06,.28-.12,.63-.18,1.06s-.08,.8-.08,1.12c0,.28,.01,.6,.03,.96,.02,.36,.07,.69,.16,.99,.08,.32,.17,.63,.26,.94,.08,.31,.19,.61,.32,.91,.11,.21,.23,.47,.38,.77s.29,.53,.42,.7c.15,.19,.31,.37,.5,.54,.18,.17,.38,.34,.59,.51,.23,.15,.47,.29,.72,.43,.25,.14,.5,.26,.75,.37,.26,.09,.51,.15,.77,.19s.5,.06,.74,.06c.28,0,.56-.03,.85-.08Z"/><path d="M119.92,41.99c-.02-.97-.05-1.78-.1-2.42h1.41l.06,3.52c.08-.15,.18-.35,.29-.61,.11-.26,.2-.46,.29-.61,.11-.21,.24-.43,.4-.64,.16-.21,.34-.43,.53-.64,.17-.19,.39-.39,.67-.59,.28-.2,.53-.36,.77-.46,.21-.11,.46-.19,.75-.26,.29-.06,.53-.1,.72-.1,.06,0,.17,0,.3,.02s.27,.04,.4,.08v1.63c-.15-.04-.3-.07-.46-.08-.16,0-.28-.02-.37-.02-.13,0-.29,.02-.5,.06-.2,.04-.4,.11-.59,.19-.26,.11-.5,.26-.74,.45-.24,.19-.44,.38-.61,.58-.19,.21-.37,.47-.54,.77s-.32,.58-.45,.83c-.13,.26-.24,.57-.34,.93-.1,.36-.17,.66-.21,.9-.02,.19-.05,.44-.08,.75-.03,.31-.05,.6-.05,.88v9.38h-1.54v-11.87c0-.81-.01-1.7-.03-2.67Z"/><path d="M131.53,39.51h4.38v1.41h-4.38v10.72c0,.19,0,.42,.02,.69s.03,.45,.05,.56c.02,.15,.06,.35,.13,.59,.06,.25,.13,.43,.19,.56,.08,.15,.19,.3,.3,.46s.25,.29,.4,.4c.17,.13,.38,.23,.62,.3,.25,.08,.44,.11,.59,.11s.35-.01,.59-.03c.25-.02,.4-.04,.46-.06,.08-.02,.19-.05,.32-.08,.13-.03,.23-.06,.32-.08l.19,1.34c-.15,.04-.29,.08-.43,.11-.14,.03-.27,.07-.4,.11-.17,.04-.38,.08-.64,.11s-.45,.05-.58,.05c-.11,0-.26-.01-.46-.03-.2-.02-.39-.05-.56-.1-.13-.04-.28-.1-.46-.16-.18-.06-.34-.14-.46-.22-.15-.11-.29-.22-.43-.35s-.26-.26-.37-.38c-.15-.19-.28-.42-.4-.67s-.2-.48-.24-.67c-.04-.17-.09-.42-.14-.75s-.09-.56-.11-.69c-.02-.15-.03-.34-.03-.56v-11.28h-2.62v-1.41h2.62v-3.84l1.54-.64v4.48Z"/><path d="M139.4,41.33h-2.24v-1.41h2.24v-.93c0-.49,.03-1,.08-1.52,.05-.52,.12-.98,.21-1.36,.06-.3,.14-.6,.24-.9s.2-.59,.3-.86c.11-.23,.24-.49,.38-.77,.15-.28,.3-.49,.45-.64,.15-.17,.31-.33,.5-.48,.18-.15,.36-.27,.53-.35,.17-.11,.33-.2,.48-.27s.33-.14,.54-.21c.15-.04,.35-.08,.61-.13,.26-.04,.48-.06,.67-.06,.21,0,.44,.02,.69,.06,.25,.04,.46,.1,.66,.16,.19,.06,.36,.12,.51,.18,.15,.05,.3,.12,.45,.21l-.51,1.25c-.15-.06-.3-.13-.45-.19-.15-.06-.28-.11-.38-.13-.13-.04-.29-.08-.5-.1-.2-.02-.38-.03-.53-.03-.13,0-.31,.02-.54,.06-.24,.04-.41,.09-.51,.13-.19,.09-.35,.18-.48,.27s-.27,.21-.42,.34c-.15,.15-.29,.33-.42,.53-.13,.2-.24,.39-.32,.56-.08,.21-.16,.42-.22,.61-.06,.19-.12,.38-.16,.58-.04,.21-.09,.5-.14,.85-.05,.35-.09,.61-.11,.78-.02,.19-.04,.5-.05,.93-.01,.43-.02,.75-.02,.96v.48h4.1v1.41h-4.1v15.2h-1.54v-15.2Z"/><path d="M152.65,56.73c-.3-.04-.6-.11-.9-.19-.32-.11-.63-.23-.94-.37-.31-.14-.61-.3-.91-.5-.28-.17-.54-.37-.8-.61s-.48-.46-.67-.67c-.19-.24-.37-.5-.54-.8-.17-.3-.34-.62-.51-.96-.15-.34-.28-.68-.4-1.02s-.22-.69-.3-1.06c-.09-.43-.16-.85-.21-1.26-.05-.42-.08-.82-.08-1.2,0-.43,.03-.88,.1-1.38,.06-.49,.14-.92,.22-1.28,.08-.32,.19-.67,.32-1.06s.27-.75,.42-1.09c.15-.32,.34-.65,.56-.99,.22-.34,.44-.64,.66-.9,.21-.23,.46-.47,.74-.7s.55-.43,.83-.58c.23-.15,.5-.28,.78-.4,.29-.12,.57-.22,.85-.3,.21-.06,.52-.13,.91-.19,.39-.06,.71-.1,.94-.1,.34,0,.73,.04,1.17,.13,.44,.09,.77,.17,1.01,.26,.28,.09,.56,.2,.85,.35s.54,.3,.75,.45c.23,.15,.48,.34,.74,.56s.47,.45,.64,.69c.23,.3,.43,.58,.58,.83,.15,.26,.28,.51,.38,.77,.17,.36,.31,.73,.43,1.1,.12,.37,.21,.71,.27,1.01,.08,.34,.16,.76,.22,1.26,.06,.5,.1,.93,.1,1.3,0,.64-.04,1.23-.11,1.76-.08,.53-.19,1.05-.34,1.54-.08,.32-.19,.65-.32,.99-.13,.34-.27,.65-.42,.93-.15,.28-.33,.56-.53,.83-.2,.28-.39,.5-.56,.67-.15,.15-.35,.33-.59,.53-.25,.2-.45,.37-.62,.5-.21,.15-.47,.3-.78,.46s-.61,.29-.91,.4c-.34,.11-.71,.19-1.12,.26-.41,.06-.75,.1-1.02,.1s-.57-.02-.86-.06Zm1.78-1.42c.29-.05,.56-.12,.82-.21,.24-.11,.48-.23,.74-.37s.49-.28,.7-.43c.19-.15,.38-.33,.58-.53,.19-.2,.35-.39,.48-.56,.13-.17,.26-.37,.38-.61,.13-.24,.24-.48,.35-.74,.11-.28,.2-.57,.29-.86,.08-.3,.17-.6,.26-.9,.08-.38,.15-.76,.19-1.14,.04-.37,.06-.73,.06-1.07,0-.32-.02-.65-.06-.99-.04-.34-.1-.68-.16-1.02-.04-.26-.11-.53-.19-.83-.08-.3-.17-.56-.26-.8-.08-.23-.2-.48-.34-.74-.14-.26-.26-.47-.37-.64-.15-.23-.31-.45-.5-.64-.18-.19-.38-.37-.59-.54-.17-.15-.39-.3-.67-.45s-.52-.27-.74-.35c-.17-.08-.42-.17-.74-.24-.32-.08-.65-.11-.99-.11-.28,0-.6,.03-.96,.1-.36,.06-.63,.14-.8,.22-.24,.11-.46,.22-.69,.34s-.42,.24-.59,.37c-.19,.15-.37,.31-.53,.48-.16,.17-.31,.34-.46,.51-.13,.15-.27,.36-.43,.62-.16,.27-.29,.52-.4,.75-.11,.28-.22,.6-.34,.96-.12,.36-.21,.67-.27,.93-.06,.28-.12,.63-.18,1.06s-.08,.8-.08,1.12c0,.28,.01,.6,.03,.96,.02,.36,.07,.69,.16,.99,.08,.32,.17,.63,.26,.94,.08,.31,.19,.61,.32,.91,.11,.21,.23,.47,.38,.77s.29,.53,.42,.7c.15,.19,.31,.37,.5,.54,.18,.17,.38,.34,.59,.51,.23,.15,.47,.29,.72,.43,.25,.14,.5,.26,.75,.37,.26,.09,.51,.15,.77,.19s.5,.06,.74,.06c.28,0,.56-.03,.85-.08Z"/><path d="M166.22,31.7v24.83h-1.54V31.7h1.54Z"/><path d="M171.35,35.8c-.25-.28-.37-.62-.37-1.02,0-.43,.12-.78,.37-1.06,.25-.28,.54-.42,.88-.42,.36,0,.66,.14,.9,.42,.24,.28,.35,.63,.35,1.06s-.12,.75-.35,1.02c-.23,.28-.53,.42-.9,.42-.34,0-.63-.14-.88-.42Zm.11,3.68h1.54v17.06h-1.54v-17.06Z"/><path d="M183.11,56.73c-.3-.04-.6-.11-.9-.19-.32-.11-.63-.23-.94-.37-.31-.14-.61-.3-.91-.5-.28-.17-.54-.37-.8-.61s-.48-.46-.67-.67c-.19-.24-.37-.5-.54-.8-.17-.3-.34-.62-.51-.96-.15-.34-.28-.68-.4-1.02s-.22-.69-.3-1.06c-.09-.43-.16-.85-.21-1.26-.05-.42-.08-.82-.08-1.2,0-.43,.03-.88,.1-1.38,.06-.49,.14-.92,.22-1.28,.08-.32,.19-.67,.32-1.06s.27-.75,.42-1.09c.15-.32,.34-.65,.56-.99,.22-.34,.44-.64,.66-.9,.21-.23,.46-.47,.74-.7s.55-.43,.83-.58c.23-.15,.5-.28,.78-.4,.29-.12,.57-.22,.85-.3,.21-.06,.52-.13,.91-.19,.39-.06,.71-.1,.94-.1,.34,0,.73,.04,1.17,.13,.44,.09,.77,.17,1.01,.26,.28,.09,.56,.2,.85,.35s.54,.3,.75,.45c.23,.15,.48,.34,.74,.56s.47,.45,.64,.69c.23,.3,.43,.58,.58,.83,.15,.26,.28,.51,.38,.77,.17,.36,.31,.73,.43,1.1,.12,.37,.21,.71,.27,1.01,.08,.34,.16,.76,.22,1.26,.06,.5,.1,.93,.1,1.3,0,.64-.04,1.23-.11,1.76-.08,.53-.19,1.05-.34,1.54-.08,.32-.19,.65-.32,.99-.13,.34-.27,.65-.42,.93-.15,.28-.33,.56-.53,.83-.2,.28-.39,.5-.56,.67-.15,.15-.35,.33-.59,.53-.25,.2-.45,.37-.62,.5-.21,.15-.47,.3-.78,.46s-.61,.29-.91,.4c-.34,.11-.71,.19-1.12,.26-.41,.06-.75,.1-1.02,.1s-.57-.02-.86-.06Zm1.78-1.42c.29-.05,.56-.12,.82-.21,.24-.11,.48-.23,.74-.37s.49-.28,.7-.43c.19-.15,.38-.33,.58-.53,.19-.2,.35-.39,.48-.56,.13-.17,.26-.37,.38-.61,.13-.24,.24-.48,.35-.74,.11-.28,.2-.57,.29-.86,.08-.3,.17-.6,.26-.9,.08-.38,.15-.76,.19-1.14,.04-.37,.06-.73,.06-1.07,0-.32-.02-.65-.06-.99-.04-.34-.1-.68-.16-1.02-.04-.26-.11-.53-.19-.83-.08-.3-.17-.56-.26-.8-.08-.23-.2-.48-.34-.74-.14-.26-.26-.47-.37-.64-.15-.23-.31-.45-.5-.64-.18-.19-.38-.37-.59-.54-.17-.15-.39-.3-.67-.45s-.52-.27-.74-.35c-.17-.08-.42-.17-.74-.24-.32-.08-.65-.11-.99-.11-.28,0-.6,.03-.96,.1-.36,.06-.63,.14-.8,.22-.24,.11-.46,.22-.69,.34s-.42,.24-.59,.37c-.19,.15-.37,.31-.53,.48-.16,.17-.31,.34-.46,.51-.13,.15-.27,.36-.43,.62-.16,.27-.29,.52-.4,.75-.11,.28-.22,.6-.34,.96-.12,.36-.21,.67-.27,.93-.06,.28-.12,.63-.18,1.06s-.08,.8-.08,1.12c0,.28,.01,.6,.03,.96,.02,.36,.07,.69,.16,.99,.08,.32,.17,.63,.26,.94,.08,.31,.19,.61,.32,.91,.11,.21,.23,.47,.38,.77s.29,.53,.42,.7c.15,.19,.31,.37,.5,.54,.18,.17,.38,.34,.59,.51,.23,.15,.47,.29,.72,.43,.25,.14,.5,.26,.75,.37,.26,.09,.51,.15,.77,.19s.5,.06,.74,.06c.28,0,.56-.03,.85-.08Z"/></g><g><path d="M75.22,5.5V21.89c0,.68-.06,1.42-.18,2.21-.12,.79-.26,1.41-.42,1.86-.18,.51-.39,.99-.64,1.44-.25,.45-.52,.83-.82,1.15-.3,.32-.64,.61-1.03,.88-.39,.27-.78,.49-1.18,.66-.46,.19-.96,.34-1.51,.43-.55,.1-1.04,.14-1.48,.14-.5,0-1.04-.05-1.61-.14-.58-.1-1.12-.24-1.61-.43-.42-.17-.87-.43-1.35-.78-.48-.35-.85-.71-1.11-1.07-.26-.36-.5-.8-.72-1.31-.22-.51-.39-1.06-.51-1.63-.08-.34-.15-.81-.21-1.41-.06-.6-.09-1.15-.09-1.66h4.6c0,.19,0,.43,.03,.72,.02,.29,.04,.54,.06,.75,.04,.23,.09,.5,.16,.78,.07,.29,.14,.54,.22,.75,.1,.21,.24,.43,.42,.66,.18,.22,.34,.39,.48,.5,.16,.11,.35,.2,.58,.27,.23,.07,.44,.11,.64,.11s.4-.02,.6-.06,.4-.12,.6-.22c.18-.11,.37-.27,.57-.5,.2-.22,.35-.46,.45-.72,.1-.23,.2-.62,.3-1.15s.15-1.08,.15-1.63V5.5h4.6Z"/><path d="M84.01,30.14h-4.6V5.5h4.6V30.14Z"/><path d="M92.68,25.06l-1.5,5.09h-4.78l7.77-24.64h5.26l7.77,24.64h-4.96l-1.46-5.09h-8.1Zm4.13-13.89h-.06l-2.78,9.54h5.56l-2.72-9.54Z"/><path d="M114.03,30.14h-4.42V5.5h6.82l7,18.53V5.5h4.42V30.14h-6.52l-7.3-19.49V30.14Z"/><path d="M135.57,8.8c-.11,.49-.2,.84-.28,1.06-.1,.28-.24,.57-.43,.86s-.39,.55-.61,.77c-.2,.17-.43,.36-.69,.58-.26,.21-.49,.37-.69,.48-.22,.13-.45,.26-.7,.38-.25,.13-.47,.22-.67,.29l-.84-1.34c.14-.08,.31-.2,.52-.34,.21-.14,.38-.25,.52-.34,.1-.08,.23-.19,.4-.32,.17-.13,.31-.26,.43-.38,.12-.13,.24-.29,.36-.48,.12-.19,.21-.36,.27-.51,.04-.11,.09-.3,.15-.59,.06-.29,.09-.51,.09-.66h-2.27V3.46h4.6v3.97c0,.43-.06,.89-.17,1.38Z"/><path d="M146.71,17.6c0-.11-.02-.24-.06-.4-.04-.16-.09-.29-.15-.4-.06-.11-.16-.22-.3-.34-.14-.12-.29-.22-.45-.3-.14-.06-.3-.12-.49-.16-.19-.04-.38-.06-.58-.06-.22,0-.41,.02-.57,.05s-.31,.08-.45,.14c-.14,.06-.26,.14-.36,.24-.1,.1-.18,.2-.24,.3-.06,.09-.11,.19-.13,.3-.03,.12-.04,.25-.04,.4,0,.13,.03,.27,.1,.43,.07,.16,.15,.29,.25,.4,.12,.11,.26,.21,.43,.32s.32,.19,.46,.26c.18,.09,.4,.18,.67,.27,.27,.1,.49,.18,.67,.24,.24,.09,.54,.19,.91,.3s.66,.22,.88,.3c.26,.08,.55,.2,.87,.34,.32,.14,.57,.26,.75,.37,.22,.11,.44,.25,.67,.42,.23,.17,.41,.33,.55,.48,.16,.17,.33,.38,.52,.62,.19,.25,.32,.49,.4,.72,.12,.28,.22,.63,.3,1.07,.08,.44,.12,.81,.12,1.1,0,.43-.08,.89-.22,1.38-.15,.49-.32,.9-.52,1.22s-.42,.62-.67,.9c-.25,.28-.52,.52-.82,.74-.26,.19-.55,.37-.88,.53-.33,.16-.66,.29-1,.4-.36,.13-.79,.24-1.3,.34-.51,.1-.96,.14-1.36,.14-.32,0-.73-.03-1.24-.1-.51-.06-.93-.14-1.27-.22-.32-.08-.67-.2-1.06-.35-.39-.15-.72-.33-1-.54-.26-.19-.51-.44-.76-.75-.25-.31-.47-.65-.67-1.01-.14-.3-.27-.7-.4-1.2-.13-.5-.19-.96-.19-1.36h4.16c0,.19,.03,.39,.08,.59,.05,.2,.11,.36,.19,.46,.1,.15,.21,.28,.34,.4s.26,.22,.4,.3c.16,.09,.39,.16,.69,.22,.3,.06,.55,.1,.75,.1,.24,0,.46-.02,.66-.06,.2-.04,.37-.1,.51-.16,.12-.06,.25-.16,.39-.27s.25-.24,.33-.37c.06-.11,.12-.27,.18-.48,.06-.21,.09-.39,.09-.54,0-.17-.05-.36-.15-.56-.1-.2-.21-.36-.33-.46-.1-.11-.25-.21-.45-.32-.2-.11-.39-.2-.57-.29-.24-.11-.53-.21-.87-.3-.34-.1-.62-.18-.84-.24-.22-.06-.51-.15-.88-.27s-.7-.23-1-.34c-.32-.11-.67-.26-1.06-.46s-.69-.4-.91-.59c-.2-.17-.4-.39-.6-.67-.2-.28-.36-.55-.48-.83-.14-.3-.25-.67-.33-1.12-.08-.45-.12-.85-.12-1.22,0-.4,.08-.84,.24-1.31,.16-.47,.34-.84,.54-1.12,.16-.26,.38-.53,.67-.83s.56-.53,.82-.7c.26-.17,.56-.34,.91-.5s.7-.28,1.06-.37c.28-.08,.63-.16,1.06-.22,.43-.06,.8-.1,1.12-.1,.46,0,.96,.05,1.5,.14,.54,.1,.92,.18,1.14,.24,.32,.09,.65,.21,.99,.38,.34,.17,.64,.37,.9,.61,.26,.23,.49,.51,.69,.82,.2,.31,.35,.6,.45,.88,.1,.28,.19,.63,.28,1.06s.13,.76,.13,.99h-4.04Z"/></g></g><path d="M150.91,30.06c1.93,0,1.93-3,0-3s-1.93,3,0,3h0Z"/></svg>