<?xml version="1.0" encoding="UTF-8"?><svg id="Layer_1" xmlns="http://www.w3.org/2000/svg" viewBox="0 0 202.55 32"><path d="M8.15,26.69c.22-.04,.41-.1,.57-.16,.12-.04,.28-.11,.48-.21s.38-.22,.54-.37c.14-.11,.27-.22,.39-.34s.24-.25,.36-.4c.12-.17,.23-.34,.32-.5,.09-.16,.18-.31,.26-.46,.1-.23,.18-.48,.23-.74,.05-.26,.08-.47,.11-.64,.04-.23,.07-.56,.09-.99,.02-.43,.03-.8,.03-1.12V4.61c0-.36,.1-.62,.3-.77,.2-.15,.4-.22,.6-.22,.22,0,.43,.08,.62,.22,.19,.15,.29,.41,.29,.77V20.74c0,.6-.03,1.13-.08,1.6-.05,.47-.11,.89-.17,1.25-.04,.26-.13,.6-.26,1.04-.13,.44-.25,.76-.35,.98-.14,.23-.29,.47-.45,.7-.16,.23-.33,.44-.51,.61-.14,.15-.3,.3-.47,.46-.17,.16-.37,.3-.59,.43-.1,.04-.28,.12-.53,.24-.25,.12-.51,.22-.77,.3-.16,.04-.43,.09-.81,.14-.38,.05-.72,.08-1.02,.08-.32,0-.63-.02-.92-.06-.29-.04-.55-.1-.77-.16-.14-.04-.38-.15-.71-.32s-.57-.3-.71-.38c-.14-.11-.31-.26-.5-.45s-.36-.36-.5-.51c-.1-.13-.25-.33-.44-.59s-.34-.5-.44-.69c-.08-.19-.2-.49-.35-.88s-.27-.72-.35-.98c-.08-.28-.16-.56-.23-.86-.07-.3-.13-.62-.17-.96-.04-.34,.03-.6,.21-.77,.18-.17,.37-.28,.57-.32,.18-.04,.39-.02,.62,.08,.23,.1,.38,.33,.44,.69,.04,.21,.08,.45,.12,.7,.04,.26,.08,.47,.12,.64,.04,.17,.11,.4,.21,.69,.1,.29,.19,.55,.27,.78,.1,.19,.23,.42,.38,.67,.15,.26,.31,.48,.47,.67,.16,.19,.36,.37,.6,.54,.24,.17,.46,.3,.66,.38,.16,.06,.37,.12,.63,.18,.26,.05,.52,.08,.78,.08,.3,0,.56-.02,.78-.06Z"/><path d="M18.52,4.61c0-.36,.1-.62,.3-.77,.2-.15,.41-.22,.63-.22s.43,.08,.63,.22c.2,.15,.3,.41,.3,.77V27.59c0,.34-.1,.59-.3,.75-.2,.16-.41,.24-.63,.24s-.43-.08-.63-.24c-.2-.16-.3-.41-.3-.75V4.61Z"/><path d="M27.7,21.09l-2.11,6.78c-.04,.08-.1,.18-.17,.29-.07,.11-.14,.19-.2,.26-.1,.11-.25,.17-.44,.18s-.35,0-.47-.02c-.08-.02-.17-.07-.26-.14-.09-.08-.16-.16-.2-.24-.02-.06-.04-.18-.06-.34s-.02-.31,0-.46L31.02,4.71c.08-.19,.17-.36,.26-.5,.09-.14,.19-.25,.29-.34,.08-.08,.21-.15,.39-.19s.32-.06,.42-.06,.24,.02,.42,.06c.18,.04,.31,.11,.39,.19,.08,.06,.17,.17,.27,.32,.1,.15,.19,.32,.27,.51l7.2,22.5c.04,.15,.05,.33,.03,.53-.02,.2-.05,.34-.09,.4-.04,.08-.11,.18-.2,.27s-.19,.15-.29,.18c-.14,.04-.3,.05-.47,.03-.17-.02-.32-.08-.44-.16-.04-.04-.1-.12-.17-.24s-.13-.22-.17-.3l-2.11-6.82h-9.34Zm4.67-15.14l-4.16,13.34h8.32l-4.16-13.34Z"/><path d="M45.69,7.97V27.59c0,.34-.1,.59-.29,.75-.19,.16-.4,.24-.62,.24s-.43-.08-.62-.24c-.19-.16-.29-.41-.29-.75V4.77c0-.36,.1-.62,.3-.77,.2-.15,.4-.22,.6-.22,.22,0,.43,.04,.62,.13,.19,.08,.39,.29,.59,.61l10.49,19.84V4.61c0-.36,.09-.62,.29-.77,.19-.15,.4-.22,.62-.22s.43,.08,.62,.22c.19,.15,.29,.41,.29,.77V27.59c0,.34-.1,.59-.29,.75-.19,.16-.4,.24-.62,.24-.2,0-.4-.04-.6-.13-.2-.09-.4-.29-.6-.61L45.69,7.97Z"/><path d="M66.21,4.31c-.02,.37-.08,.73-.18,1.07-.08,.3-.19,.61-.33,.93-.14,.32-.29,.6-.45,.83-.14,.21-.3,.44-.48,.67-.18,.23-.37,.45-.57,.64-.16,.15-.35,.32-.56,.51-.21,.19-.41,.35-.59,.48-.14,.08-.26,.08-.36-.03-.1-.11-.11-.22-.03-.35,.14-.17,.3-.38,.48-.62s.33-.45,.45-.62,.26-.39,.41-.67c.15-.28,.27-.51,.35-.7,.1-.24,.18-.49,.23-.77,.05-.28,.08-.49,.08-.64,0-.08-.02-.15-.05-.21-.03-.05-.08-.09-.13-.11-.04-.02-.11-.04-.21-.05-.1-.01-.2-.02-.3-.02-.2-.02-.39-.08-.56-.19-.17-.11-.31-.21-.41-.32-.12-.15-.22-.33-.3-.53-.08-.2-.12-.44-.12-.72,0-.23,.05-.47,.15-.7,.1-.23,.22-.43,.36-.58,.2-.19,.41-.33,.63-.42s.43-.13,.63-.13c.24,0,.48,.05,.71,.14s.43,.25,.59,.46c.16,.19,.3,.43,.42,.72,.12,.29,.18,.6,.18,.94,0,.28-.01,.6-.03,.98Z"/><path d="M81,15.52c-.08,.28-.27,.47-.57,.58-.2,.08-.42,.08-.65-.02s-.4-.28-.5-.56c-.04-.17-.1-.38-.18-.64s-.17-.49-.27-.7c-.1-.21-.2-.39-.3-.53s-.24-.29-.42-.46-.39-.31-.62-.42c-.23-.11-.4-.17-.5-.19-.22-.06-.45-.11-.69-.13s-.44-.03-.6-.03c-.26,0-.52,.03-.78,.08-.26,.05-.47,.1-.63,.14-.2,.06-.37,.14-.51,.22-.14,.09-.26,.17-.36,.26-.14,.11-.26,.22-.35,.35-.09,.13-.19,.28-.29,.45-.08,.19-.14,.38-.17,.56-.03,.18-.05,.41-.05,.69,0,.34,.06,.66,.18,.96,.12,.3,.28,.53,.48,.7,.2,.19,.44,.36,.71,.51,.27,.15,.51,.28,.71,.38,.22,.11,.53,.23,.92,.38s.71,.28,.95,.38c.3,.11,.62,.22,.96,.35,.34,.13,.63,.25,.87,.35,.28,.13,.58,.27,.9,.43,.32,.16,.56,.3,.72,.43,.2,.15,.4,.34,.59,.58,.19,.23,.35,.47,.47,.7,.16,.32,.29,.7,.38,1.14,.09,.44,.14,.79,.14,1.07,0,.34-.05,.73-.15,1.17-.1,.44-.2,.76-.3,.98-.12,.26-.25,.5-.39,.74-.14,.23-.3,.44-.48,.61-.24,.24-.51,.44-.8,.62s-.57,.33-.83,.43c-.38,.13-.82,.23-1.33,.32s-.92,.13-1.27,.13c-.26,0-.6-.02-1.01-.06-.41-.04-.75-.11-1.01-.19-.32-.11-.65-.24-.98-.4-.33-.16-.62-.35-.86-.56-.26-.23-.48-.49-.66-.75s-.35-.57-.51-.91c-.12-.26-.24-.55-.35-.88-.11-.33-.19-.66-.23-.98-.02-.26,.01-.47,.11-.64,.09-.17,.28-.3,.56-.38,.18-.06,.41-.05,.68,.03s.44,.27,.5,.54c.02,.15,.05,.35,.09,.61,.04,.26,.1,.5,.18,.74,.08,.19,.17,.39,.27,.59,.1,.2,.24,.4,.42,.59,.18,.19,.35,.33,.51,.42,.16,.08,.38,.18,.66,.29,.22,.09,.5,.14,.84,.18,.34,.03,.58,.05,.72,.05,.12,0,.37-.01,.75-.03,.38-.02,.68-.07,.9-.16,.24-.11,.46-.2,.65-.29,.19-.08,.37-.2,.53-.35,.16-.17,.28-.31,.36-.43,.08-.12,.17-.28,.27-.5,.1-.21,.17-.43,.21-.64,.04-.21,.06-.45,.06-.7,0-.28-.04-.53-.11-.75-.07-.22-.19-.46-.35-.72-.16-.3-.39-.56-.68-.78-.29-.22-.58-.4-.86-.53-.3-.15-.64-.29-1.01-.43-.37-.14-.73-.27-1.07-.4-.3-.11-.63-.23-.98-.37-.35-.14-.68-.28-.98-.43-.28-.13-.58-.28-.89-.46-.31-.18-.58-.37-.8-.56-.2-.17-.38-.4-.54-.69-.16-.29-.28-.53-.36-.72-.06-.13-.13-.39-.2-.78-.07-.39-.11-.74-.11-1.04,0-.32,.04-.68,.14-1.07,.09-.39,.2-.7,.32-.91,.1-.24,.26-.49,.47-.75s.44-.47,.68-.62c.24-.17,.5-.32,.78-.45s.55-.22,.81-.29c.22-.06,.53-.12,.93-.18,.4-.05,.71-.08,.93-.08,.28,0,.62,.03,1.02,.1s.73,.14,.99,.22c.24,.09,.51,.21,.8,.37s.51,.28,.65,.37c.22,.15,.44,.34,.65,.58,.21,.24,.37,.45,.47,.64,.14,.26,.26,.52,.36,.8,.1,.28,.19,.57,.27,.86,.06,.32,.05,.62-.03,.9Z"/><path d="M94.98,5.76c0-.64,.18-1.1,.54-1.39s.82-.43,1.39-.43h4.64c.3,0,.67,.03,1.11,.08,.44,.05,.77,.1,.99,.14,.22,.04,.47,.11,.75,.21,.28,.1,.52,.2,.72,.3,.22,.09,.45,.21,.69,.38,.24,.17,.44,.33,.6,.48,.16,.13,.35,.33,.57,.61,.22,.28,.39,.52,.51,.74,.1,.17,.22,.41,.35,.72s.24,.61,.32,.91c.1,.3,.18,.68,.23,1.15,.05,.47,.08,.89,.08,1.25s-.03,.78-.08,1.26c-.05,.48-.12,.87-.23,1.17-.08,.28-.19,.57-.32,.88s-.25,.56-.35,.75c-.12,.21-.29,.46-.51,.74-.22,.28-.41,.48-.57,.61-.16,.15-.36,.3-.6,.45-.24,.15-.47,.28-.69,.38-.2,.08-.44,.18-.72,.29-.28,.11-.53,.18-.75,.22-.22,.04-.55,.1-.99,.16-.44,.06-.81,.1-1.11,.1h-4.76v9.63c0,.34-.1,.6-.29,.77-.19,.17-.4,.26-.62,.26-.2,0-.4-.09-.6-.26-.2-.17-.3-.43-.3-.77V5.76Zm1.81,10.37h4.58c.32,0,.67-.02,1.05-.06s.68-.1,.9-.16c.18-.04,.39-.12,.63-.22,.24-.11,.46-.22,.66-.35,.22-.13,.41-.26,.56-.4,.15-.14,.3-.32,.44-.56,.16-.23,.3-.46,.41-.67,.11-.21,.21-.45,.29-.7s.15-.55,.21-.9c.06-.34,.09-.74,.09-1.18s-.03-.82-.09-1.17c-.06-.35-.13-.66-.21-.91s-.18-.5-.29-.72-.25-.44-.41-.66c-.14-.23-.29-.42-.44-.54s-.34-.26-.56-.38c-.2-.13-.42-.25-.66-.35-.24-.11-.45-.18-.63-.22-.22-.06-.52-.12-.9-.16-.38-.04-.73-.06-1.05-.06h-3.22c-.5,0-.85,.09-1.05,.27-.2,.18-.3,.49-.3,.91v9.22Z"/><path d="M111.7,17.6c.1-.75,.19-1.27,.27-1.57,.1-.3,.21-.62,.33-.96,.12-.34,.25-.65,.39-.93,.12-.23,.27-.49,.44-.75s.33-.47,.47-.62c.18-.21,.39-.43,.63-.64,.24-.21,.45-.38,.63-.51,.18-.11,.4-.22,.66-.35,.26-.13,.49-.22,.69-.29,.22-.06,.5-.13,.84-.19s.67-.1,.99-.1,.66,.03,1.01,.1c.35,.06,.63,.13,.83,.19,.22,.06,.46,.16,.71,.29,.25,.13,.47,.25,.65,.35,.18,.13,.39,.3,.63,.51,.24,.21,.45,.43,.63,.64,.14,.15,.3,.36,.47,.62,.17,.27,.32,.52,.44,.75,.14,.28,.28,.59,.41,.93,.13,.34,.24,.66,.32,.96,.1,.3,.2,.82,.29,1.57,.09,.75,.14,1.42,.14,2.02s-.04,1.27-.14,2.02c-.09,.75-.19,1.27-.29,1.57-.08,.28-.19,.59-.32,.94-.13,.35-.27,.67-.41,.94-.12,.24-.27,.48-.44,.74-.17,.26-.33,.47-.47,.64-.18,.21-.39,.43-.63,.64-.24,.21-.45,.38-.63,.51-.18,.11-.4,.22-.65,.35-.25,.13-.49,.22-.71,.29-.2,.06-.48,.13-.83,.19-.35,.06-.69,.1-1.01,.1s-.65-.03-.99-.1-.62-.13-.84-.19c-.2-.06-.43-.16-.69-.29-.26-.13-.48-.25-.66-.35-.18-.13-.39-.3-.63-.51s-.45-.43-.63-.64c-.14-.17-.3-.38-.47-.64s-.32-.5-.44-.74c-.14-.28-.27-.59-.39-.94-.12-.35-.23-.67-.33-.94-.08-.3-.17-.82-.27-1.57-.1-.75-.15-1.42-.15-2.02s.05-1.27,.15-2.02Zm1.78,3.57c.06,.44,.12,.79,.18,1.07,.04,.19,.11,.45,.2,.77,.09,.32,.17,.58,.26,.77,.08,.19,.18,.41,.3,.64,.12,.24,.24,.44,.36,.61,.12,.15,.24,.29,.35,.43s.27,.29,.47,.46c.18,.15,.34,.27,.48,.35s.28,.16,.42,.22c.24,.09,.48,.16,.71,.21,.23,.05,.52,.08,.86,.08s.63-.03,.86-.08c.23-.05,.47-.12,.71-.21,.16-.06,.31-.14,.44-.22s.29-.2,.47-.35c.2-.17,.36-.33,.47-.46s.23-.28,.35-.43c.12-.17,.24-.37,.36-.61,.12-.23,.22-.45,.3-.64,.08-.19,.17-.45,.26-.77,.09-.32,.16-.58,.2-.77,.06-.28,.12-.63,.18-1.07,.06-.44,.09-.95,.09-1.55s-.03-1.11-.09-1.55-.12-.79-.18-1.07c-.04-.19-.11-.45-.2-.77-.09-.32-.18-.58-.26-.77-.08-.19-.18-.41-.3-.64-.12-.23-.24-.44-.36-.61-.12-.17-.24-.33-.35-.46s-.27-.28-.47-.43c-.18-.15-.34-.27-.47-.35-.13-.08-.28-.16-.44-.22-.24-.11-.48-.18-.71-.22-.23-.04-.52-.06-.86-.06s-.63,.02-.86,.06c-.23,.04-.47,.12-.71,.22-.14,.06-.28,.14-.42,.22-.14,.09-.3,.2-.48,.35-.2,.15-.36,.29-.47,.43s-.23,.29-.35,.46c-.12,.17-.24,.37-.36,.61-.12,.23-.22,.45-.3,.64-.08,.19-.17,.45-.26,.77-.09,.32-.16,.58-.2,.77-.06,.28-.12,.63-.18,1.07s-.09,.96-.09,1.55,.03,1.12,.09,1.55Z"/><path d="M130.43,13.43c.17-.24,.3-.42,.38-.53,.12-.15,.25-.3,.39-.45s.29-.3,.45-.45c.16-.13,.33-.26,.5-.38,.17-.13,.36-.25,.56-.35,.1-.06,.27-.14,.5-.22,.23-.08,.43-.15,.59-.19,.18-.04,.33-.08,.45-.1,.12-.02,.25-.04,.39-.06,.12-.02,.24-.01,.36,.03,.12,.04,.22,.09,.3,.13,.06,.04,.12,.11,.18,.21,.06,.1,.1,.2,.12,.3,.04,.13,.05,.29,.03,.48-.02,.19-.05,.32-.09,.38-.06,.08-.15,.17-.27,.24-.12,.08-.21,.12-.27,.14-.14,.02-.31,.05-.5,.1-.19,.04-.38,.09-.56,.13-.14,.04-.27,.09-.39,.13-.12,.04-.29,.12-.51,.22-.12,.06-.24,.13-.36,.21-.12,.07-.26,.18-.42,.3-.2,.15-.35,.28-.45,.38-.1,.11-.22,.24-.36,.38-.12,.15-.22,.29-.3,.43s-.17,.28-.27,.43c-.12,.15-.22,.3-.29,.46-.07,.16-.14,.3-.2,.43s-.14,.32-.23,.58c-.09,.26-.14,.53-.14,.83v9.89c0,.36-.1,.62-.29,.78-.19,.16-.4,.24-.62,.24-.2,0-.4-.08-.59-.24-.19-.16-.29-.42-.29-.78V11.84c0-.36,.09-.62,.29-.78,.19-.16,.39-.24,.59-.24,.22,0,.43,.08,.62,.24,.19,.16,.29,.42,.29,.78v2.14c.1-.13,.24-.31,.41-.56Z"/><path d="M142.1,24.8c0,.34,.03,.6,.11,.78,.07,.18,.18,.35,.32,.5,.18,.19,.4,.3,.65,.32s.45,.03,.59,.03h1.39c.28,0,.51,.08,.68,.26,.17,.17,.26,.37,.26,.61,0,.21-.08,.43-.23,.64-.15,.21-.37,.32-.65,.32h-1.72c-.26,0-.53-.02-.81-.06-.28-.04-.49-.1-.63-.16-.14-.04-.3-.12-.48-.22-.18-.11-.32-.2-.42-.29-.08-.08-.19-.22-.32-.4-.13-.18-.22-.33-.26-.43-.04-.08-.09-.27-.15-.54s-.09-.54-.09-.8V13h-2.32c-.26,0-.47-.08-.63-.26-.16-.17-.24-.37-.24-.61s.08-.44,.24-.62c.16-.18,.37-.27,.63-.27h2.32V6.31c0-.41,.1-.69,.3-.85,.2-.16,.4-.24,.6-.24s.4,.09,.59,.27c.19,.18,.29,.47,.29,.88v4.86h3.1c.28,0,.5,.09,.65,.27,.15,.18,.23,.39,.23,.62s-.08,.44-.23,.61c-.15,.17-.37,.26-.65,.26h-3.1v11.81Z"/><path d="M155.96,11.65c.28,0,.5,.08,.65,.26,.15,.17,.23,.37,.23,.61,0,.21-.08,.41-.23,.59-.15,.18-.37,.27-.65,.27h-3.04v14.18c0,.36-.1,.62-.29,.78-.19,.16-.4,.24-.62,.24s-.42-.08-.6-.24c-.18-.16-.27-.42-.27-.78V13.38h-2.44c-.26,0-.47-.09-.63-.27-.16-.18-.24-.38-.24-.59,0-.24,.08-.44,.24-.61,.16-.17,.37-.26,.63-.26h2.44V6.66c0-.17,.02-.38,.06-.62,.04-.25,.07-.42,.09-.53,.04-.17,.1-.34,.17-.5,.07-.16,.17-.29,.29-.4,.08-.08,.2-.18,.35-.29,.15-.11,.27-.17,.35-.19,.12-.04,.31-.08,.56-.13,.25-.04,.47-.06,.65-.06h2.29c.28,0,.5,.08,.65,.26,.15,.17,.23,.37,.23,.61s-.08,.44-.23,.62c-.15,.18-.37,.27-.65,.27h-1.75c-.2,0-.37,.02-.51,.06-.14,.04-.27,.12-.39,.22-.12,.11-.21,.25-.27,.42-.06,.17-.09,.39-.09,.67v4.58h3.04Z"/><path d="M159.39,17.6c.1-.75,.19-1.27,.27-1.57,.1-.3,.21-.62,.33-.96,.12-.34,.25-.65,.39-.93,.12-.23,.27-.49,.44-.75s.33-.47,.47-.62c.18-.21,.39-.43,.63-.64,.24-.21,.45-.38,.63-.51,.18-.11,.4-.22,.66-.35,.26-.13,.49-.22,.69-.29,.22-.06,.5-.13,.84-.19s.67-.1,.99-.1,.66,.03,1.01,.1c.35,.06,.63,.13,.83,.19,.22,.06,.46,.16,.71,.29,.25,.13,.47,.25,.65,.35,.18,.13,.39,.3,.63,.51,.24,.21,.45,.43,.63,.64,.14,.15,.3,.36,.47,.62,.17,.27,.32,.52,.44,.75,.14,.28,.28,.59,.41,.93,.13,.34,.24,.66,.32,.96,.1,.3,.2,.82,.29,1.57,.09,.75,.14,1.42,.14,2.02s-.04,1.27-.14,2.02c-.09,.75-.19,1.27-.29,1.57-.08,.28-.19,.59-.32,.94-.13,.35-.27,.67-.41,.94-.12,.24-.27,.48-.44,.74-.17,.26-.33,.47-.47,.64-.18,.21-.39,.43-.63,.64-.24,.21-.45,.38-.63,.51-.18,.11-.4,.22-.65,.35-.25,.13-.49,.22-.71,.29-.2,.06-.48,.13-.83,.19-.35,.06-.69,.1-1.01,.1s-.65-.03-.99-.1-.62-.13-.84-.19c-.2-.06-.43-.16-.69-.29-.26-.13-.48-.25-.66-.35-.18-.13-.39-.3-.63-.51s-.45-.43-.63-.64c-.14-.17-.3-.38-.47-.64s-.32-.5-.44-.74c-.14-.28-.27-.59-.39-.94-.12-.35-.23-.67-.33-.94-.08-.3-.17-.82-.27-1.57-.1-.75-.15-1.42-.15-2.02s.05-1.27,.15-2.02Zm1.78,3.57c.06,.44,.12,.79,.18,1.07,.04,.19,.11,.45,.2,.77,.09,.32,.17,.58,.26,.77,.08,.19,.18,.41,.3,.64,.12,.24,.24,.44,.36,.61,.12,.15,.24,.29,.35,.43s.27,.29,.47,.46c.18,.15,.34,.27,.48,.35s.28,.16,.42,.22c.24,.09,.48,.16,.71,.21,.23,.05,.52,.08,.86,.08s.63-.03,.86-.08c.23-.05,.47-.12,.71-.21,.16-.06,.31-.14,.44-.22s.29-.2,.47-.35c.2-.17,.36-.33,.47-.46s.23-.28,.35-.43c.12-.17,.24-.37,.36-.61,.12-.23,.22-.45,.3-.64,.08-.19,.17-.45,.26-.77,.09-.32,.16-.58,.2-.77,.06-.28,.12-.63,.18-1.07,.06-.44,.09-.95,.09-1.55s-.03-1.11-.09-1.55-.12-.79-.18-1.07c-.04-.19-.11-.45-.2-.77-.09-.32-.18-.58-.26-.77-.08-.19-.18-.41-.3-.64-.12-.23-.24-.44-.36-.61-.12-.17-.24-.33-.35-.46s-.27-.28-.47-.43c-.18-.15-.34-.27-.47-.35-.13-.08-.28-.16-.44-.22-.24-.11-.48-.18-.71-.22-.23-.04-.52-.06-.86-.06s-.63,.02-.86,.06c-.23,.04-.47,.12-.71,.22-.14,.06-.28,.14-.42,.22-.14,.09-.3,.2-.48,.35-.2,.15-.36,.29-.47,.43s-.23,.29-.35,.46c-.12,.17-.24,.37-.36,.61-.12,.23-.22,.45-.3,.64-.08,.19-.17,.45-.26,.77-.09,.32-.16,.58-.2,.77-.06,.28-.12,.63-.18,1.07s-.09,.96-.09,1.55,.03,1.12,.09,1.55Z"/><path d="M176.63,6.47c0-.23-.06-.41-.18-.53s-.3-.18-.54-.18h-.9c-.26,0-.47-.1-.63-.29-.16-.19-.24-.41-.24-.64s.08-.44,.24-.62c.16-.18,.37-.27,.63-.27h2.2c.44,0,.75,.1,.93,.29,.18,.19,.27,.5,.27,.93V27.56c0,.36-.1,.62-.29,.78s-.4,.24-.62,.24c-.2,0-.4-.08-.59-.24-.19-.16-.29-.42-.29-.78V6.47Z"/><path d="M184.82,4.37c.26,.29,.39,.66,.39,1.1s-.13,.78-.39,1.07c-.26,.29-.59,.43-.99,.43s-.71-.14-.98-.43-.41-.64-.41-1.07c0-.45,.13-.82,.41-1.1s.6-.43,.98-.43c.4,0,.73,.14,.99,.43Zm-1.84,7.41c0-.41,.11-.68,.32-.83s.41-.22,.59-.22,.38,.08,.59,.22,.32,.43,.32,.83v15.74c0,.4-.1,.68-.29,.83-.19,.15-.4,.22-.62,.22-.2,0-.4-.08-.6-.22-.2-.15-.3-.43-.3-.83V11.78Z"/><path d="M188.74,17.6c.1-.75,.19-1.27,.27-1.57,.1-.3,.21-.62,.33-.96,.12-.34,.25-.65,.39-.93,.12-.23,.27-.49,.44-.75s.33-.47,.47-.62c.18-.21,.39-.43,.63-.64,.24-.21,.45-.38,.63-.51,.18-.11,.4-.22,.66-.35,.26-.13,.49-.22,.69-.29,.22-.06,.5-.13,.84-.19s.67-.1,.99-.1,.66,.03,1.01,.1c.35,.06,.63,.13,.83,.19,.22,.06,.46,.16,.71,.29,.25,.13,.47,.25,.65,.35,.18,.13,.39,.3,.63,.51,.24,.21,.45,.43,.63,.64,.14,.15,.3,.36,.47,.62,.17,.27,.32,.52,.44,.75,.14,.28,.28,.59,.41,.93,.13,.34,.24,.66,.32,.96,.1,.3,.2,.82,.29,1.57,.09,.75,.14,1.42,.14,2.02s-.04,1.27-.14,2.02c-.09,.75-.19,1.27-.29,1.57-.08,.28-.19,.59-.32,.94-.13,.35-.27,.67-.41,.94-.12,.24-.27,.48-.44,.74-.17,.26-.33,.47-.47,.64-.18,.21-.39,.43-.63,.64-.24,.21-.45,.38-.63,.51-.18,.11-.4,.22-.65,.35-.25,.13-.49,.22-.71,.29-.2,.06-.48,.13-.83,.19-.35,.06-.69,.1-1.01,.1s-.65-.03-.99-.1-.62-.13-.84-.19c-.2-.06-.43-.16-.69-.29-.26-.13-.48-.25-.66-.35-.18-.13-.39-.3-.63-.51s-.45-.43-.63-.64c-.14-.17-.3-.38-.47-.64s-.32-.5-.44-.74c-.14-.28-.27-.59-.39-.94-.12-.35-.23-.67-.33-.94-.08-.3-.17-.82-.27-1.57-.1-.75-.15-1.42-.15-2.02s.05-1.27,.15-2.02Zm1.78,3.57c.06,.44,.12,.79,.18,1.07,.04,.19,.11,.45,.2,.77,.09,.32,.17,.58,.26,.77,.08,.19,.18,.41,.3,.64,.12,.24,.24,.44,.36,.61,.12,.15,.24,.29,.35,.43s.27,.29,.47,.46c.18,.15,.34,.27,.48,.35s.28,.16,.42,.22c.24,.09,.48,.16,.71,.21,.23,.05,.52,.08,.86,.08s.63-.03,.86-.08c.23-.05,.47-.12,.71-.21,.16-.06,.31-.14,.44-.22s.29-.2,.47-.35c.2-.17,.36-.33,.47-.46s.23-.28,.35-.43c.12-.17,.24-.37,.36-.61,.12-.23,.22-.45,.3-.64,.08-.19,.17-.45,.26-.77,.09-.32,.16-.58,.2-.77,.06-.28,.12-.63,.18-1.07,.06-.44,.09-.95,.09-1.55s-.03-1.11-.09-1.55-.12-.79-.18-1.07c-.04-.19-.11-.45-.2-.77-.09-.32-.18-.58-.26-.77-.08-.19-.18-.41-.3-.64-.12-.23-.24-.44-.36-.61-.12-.17-.24-.33-.35-.46s-.27-.28-.47-.43c-.18-.15-.34-.27-.47-.35-.13-.08-.28-.16-.44-.22-.24-.11-.48-.18-.71-.22-.23-.04-.52-.06-.86-.06s-.63,.02-.86,.06c-.23,.04-.47,.12-.71,.22-.14,.06-.28,.14-.42,.22-.14,.09-.3,.2-.48,.35-.2,.15-.36,.29-.47,.43s-.23,.29-.35,.46c-.12,.17-.24,.37-.36,.61-.12,.23-.22,.45-.3,.64-.08,.19-.17,.45-.26,.77-.09,.32-.16,.58-.2,.77-.06,.28-.12,.63-.18,1.07s-.09,.96-.09,1.55,.03,1.12,.09,1.55Z"/></svg>